<svg width="70" height="70" viewBox="0 0 70 70" fill="none" xmlns="http://www.w3.org/2000/svg">
<rect width="70" height="70" rx="5" fill="#377EF6"/>
<path d="M39.6053 29.6745C39.6053 32.2288 37.5434 34.2994 35 34.2994C32.4566 34.2994 30.3947 32.2288 30.3947 29.6745C30.3947 27.1203 32.4566 25.0497 35 25.0497C37.5434 25.0497 39.6053 27.1203 39.6053 29.6745Z" fill="white"/>
<path fill-rule="evenodd" clip-rule="evenodd" d="M29.1775 16.3621C29.3497 15.4974 30.1058 14.875 30.9838 14.875H39.9372C40.8153 14.875 41.5713 15.4974 41.7435 16.3621L42.3684 19.4999H48.8158C50.8505 19.4999 52.5 21.1563 52.5 23.1997V36.1493C52.5 38.1927 50.8505 39.8492 48.8158 39.8492H41.2009C40.8824 40.4022 40.2871 40.7742 39.6053 40.7742H30.3947C29.7129 40.7742 29.1176 40.4022 28.7991 39.8492H21.1842C19.1495 39.8492 17.5 38.1927 17.5 36.1493V23.1997C17.5 21.1563 19.1495 19.4999 21.1842 19.4999H28.5526L29.1775 16.3621ZM24.8684 24.1247C24.8684 25.6573 23.6313 26.8996 22.1053 26.8996C20.5792 26.8996 19.3421 25.6573 19.3421 24.1247C19.3421 22.5922 20.5792 21.3498 22.1053 21.3498C23.6313 21.3498 24.8684 22.5922 24.8684 24.1247ZM41.4474 29.6745C41.4474 33.2505 38.5608 36.1493 35 36.1493C31.4392 36.1493 28.5526 33.2505 28.5526 29.6745C28.5526 26.0986 31.4392 23.1997 35 23.1997C38.5608 23.1997 41.4474 26.0986 41.4474 29.6745Z" fill="white"/>
<path d="M37.3028 46.8772C36.5398 45.55 36.9926 43.8529 38.3142 43.0866C39.6358 42.3203 41.3257 42.7751 42.0887 44.1023L45.5294 50.0872C46.2925 51.4144 45.8397 53.1115 44.5181 53.8778C43.1965 54.644 41.5065 54.1893 40.7435 52.8621L37.3028 46.8772Z" fill="white"/>
<path d="M32.6346 46.8772C33.3976 45.55 32.9448 43.8529 31.6232 43.0866C30.3016 42.3203 28.6116 42.7751 27.8486 44.1023L24.4079 50.0872C23.6449 51.4144 24.0977 53.1115 25.4193 53.8778C26.7409 54.644 28.4308 54.1893 29.1938 52.8621L32.6346 46.8772Z" fill="white"/>
</svg>
