<svg width="60" height="60" viewBox="0 0 60 60" fill="none" xmlns="http://www.w3.org/2000/svg">
<path d="M0 4C0 1.79086 1.79086 0 4 0H56C58.2091 0 60 1.79086 60 4V56C60 58.2091 58.2091 60 56 60H4C1.79086 60 0 58.2091 0 56V4Z" fill="#FF3B2C"/>
<path fill-rule="evenodd" clip-rule="evenodd" d="M15.3871 18.7273C15.3871 16.8696 16.9036 15.3636 18.7742 15.3636H40.2258C42.0965 15.3636 43.6129 16.8696 43.6129 18.7273V45.6364C43.6129 47.494 42.0965 49 40.2258 49H18.7742C16.9036 49 15.3871 47.494 15.3871 45.6364V18.7273ZM37.9677 29.3788C37.9677 34.023 34.1766 37.7879 29.5 37.7879C24.8234 37.7879 21.0323 34.023 21.0323 29.3788C21.0323 24.7346 24.8234 20.9697 29.5 20.9697C34.1766 20.9697 37.9677 24.7346 37.9677 29.3788ZM38.5323 45.6364C39.4676 45.6364 40.2258 44.8834 40.2258 43.9545C40.2258 43.0257 39.4676 42.2727 38.5323 42.2727C37.5969 42.2727 36.8387 43.0257 36.8387 43.9545C36.8387 44.8834 37.5969 45.6364 38.5323 45.6364Z" fill="white"/>
<path d="M15.5 12C13.5671 12 12 13.5241 12 15.4052V24.4857C12 26.5532 14.3333 25.5399 14.3333 23.4724V17.6753C14.3333 15.7943 15.9005 14.2701 17.8333 14.2701H41.1667C43.0995 14.2701 44.6667 15.7943 44.6667 17.6753V23.4724C44.6667 25.5399 47 26.5532 47 24.4857V15.4052C47 13.5241 45.4329 12 43.5 12H15.5Z" fill="white"/>
</svg>
