<svg width="370" height="370" viewBox="0 0 370 370" fill="none" xmlns="http://www.w3.org/2000/svg">
<g clip-path="url(#clip0_1881_77980)">
<path d="M370 282.976H0V283.162H370V282.976Z" fill="#EBEBEB"/>
<path d="M175.38 249.972H32.4934C31.374 249.97 30.3012 249.524 29.5104 248.732C28.7195 247.94 28.2754 246.866 28.2754 245.747V44.8886C28.2851 43.7757 28.7336 42.7115 29.5234 41.9273C30.3131 41.1431 31.3804 40.7021 32.4934 40.7002H175.38C176.501 40.7002 177.575 41.1454 178.368 41.9378C179.16 42.7302 179.605 43.8049 179.605 44.9256V245.747C179.605 246.867 179.16 247.942 178.368 248.735C177.575 249.527 176.501 249.972 175.38 249.972ZM32.4934 40.8482C31.4231 40.8502 30.3973 41.2767 29.6412 42.0342C28.8851 42.7917 28.4604 43.8183 28.4604 44.8886V245.747C28.4604 246.817 28.8851 247.844 29.6412 248.601C30.3973 249.359 31.4231 249.785 32.4934 249.787H175.38C176.451 249.785 177.478 249.359 178.235 248.602C178.992 247.844 179.418 246.818 179.42 245.747V44.8886C179.418 43.8176 178.992 42.7911 178.235 42.0338C177.478 41.2765 176.451 40.8502 175.38 40.8482H32.4934Z" fill="#EBEBEB"/>
<path d="M335.449 249.972H192.555C191.435 249.97 190.362 249.524 189.57 248.732C188.778 247.94 188.332 246.867 188.33 245.747V44.8886C188.342 43.775 188.792 42.7108 189.583 41.9268C190.374 41.1428 191.442 40.7021 192.555 40.7002H335.449C336.561 40.704 337.627 41.1459 338.415 41.9299C339.203 42.7139 339.65 43.7769 339.66 44.8886V245.747C339.66 246.865 339.217 247.937 338.428 248.729C337.639 249.521 336.568 249.968 335.449 249.972ZM192.555 40.8482C191.484 40.8502 190.458 41.2765 189.701 42.0338C188.943 42.7911 188.517 43.8176 188.515 44.8886V245.747C188.517 246.818 188.943 247.844 189.701 248.602C190.458 249.359 191.484 249.785 192.555 249.787H335.449C336.52 249.785 337.547 249.359 338.304 248.602C339.062 247.844 339.488 246.818 339.49 245.747V44.8886C339.488 43.8176 339.062 42.7911 338.304 42.0338C337.547 41.2765 336.52 40.8502 335.449 40.8482H192.555Z" fill="#EBEBEB"/>
<path d="M332.926 294.883H313.686V295.069H332.926V294.883Z" fill="#EBEBEB"/>
<path d="M263.463 296.896H230.141V297.081H263.463V296.896Z" fill="#EBEBEB"/>
<path d="M312.946 288.016H267.961V288.201H312.946V288.016Z" fill="#EBEBEB"/>
<path d="M53.0505 289.259H38.8203V289.444H53.0505V289.259Z" fill="#EBEBEB"/>
<path d="M100.559 289.259H59.6445V289.444H100.559V289.259Z" fill="#EBEBEB"/>
<path d="M180.664 292.382H125.557V292.567H180.664V292.382Z" fill="#EBEBEB"/>
<path d="M49.9068 228.675H34.2188V282.976H49.9068V228.675Z" fill="#FAFAFA"/>
<path d="M63.6411 240.589H47.9531V282.977H63.6411V240.589Z" fill="#FAFAFA"/>
<path d="M73.6743 205.661H57.9863V282.976H73.6743V205.661Z" fill="#FAFAFA"/>
<path d="M84.1001 142.968H68.4121V282.976H84.1001V142.968Z" fill="#FAFAFA"/>
<path d="M122.905 153.869H80.8066V282.976H122.905V153.869Z" fill="#FAFAFA"/>
<path d="M286.587 282.976H304.51V245.813H286.587V282.976Z" fill="#FAFAFA"/>
<path d="M270.884 282.976H288.807V253.968H270.884V282.976Z" fill="#FAFAFA"/>
<path d="M259.431 282.976H277.354V230.059H259.431V282.976Z" fill="#FAFAFA"/>
<path d="M247.515 282.976H265.438V187.153H247.515V282.976Z" fill="#FAFAFA"/>
<path d="M257.151 165.916H202.146V282.976H257.151V165.916Z" fill="#F0F0F0"/>
<path d="M251.911 170.822H249.291V185.067H251.911V170.822Z" fill="#F5F5F5"/>
<path d="M251.911 193.104H249.291V207.349H251.911V193.104Z" fill="#F5F5F5"/>
<path d="M251.911 215.377H249.291V229.622H251.911V215.377Z" fill="#F5F5F5"/>
<path d="M251.911 237.651H249.291V251.896H251.911V237.651Z" fill="#F5F5F5"/>
<path d="M251.911 259.933H249.291V274.178H251.911V259.933Z" fill="#F5F5F5"/>
<path d="M242.631 170.822H240.012V185.067H242.631V170.822Z" fill="#F5F5F5"/>
<path d="M242.631 193.104H240.012V207.349H242.631V193.104Z" fill="#F5F5F5"/>
<path d="M242.631 215.377H240.012V229.622H242.631V215.377Z" fill="#F5F5F5"/>
<path d="M242.631 237.651H240.012V251.896H242.631V237.651Z" fill="#F5F5F5"/>
<path d="M242.631 259.933H240.012V274.178H242.631V259.933Z" fill="#F5F5F5"/>
<path d="M233.352 170.822H230.733V185.067H233.352V170.822Z" fill="#F5F5F5"/>
<path d="M233.352 193.104H230.733V207.349H233.352V193.104Z" fill="#F5F5F5"/>
<path d="M233.352 215.377H230.733V229.622H233.352V215.377Z" fill="#F5F5F5"/>
<path d="M233.352 237.651H230.733V251.896H233.352V237.651Z" fill="#F5F5F5"/>
<path d="M233.352 259.933H230.733V274.178H233.352V259.933Z" fill="#F5F5F5"/>
<path d="M224.073 170.822H221.453V185.067H224.073V170.822Z" fill="#F5F5F5"/>
<path d="M224.073 193.104H221.453V207.349H224.073V193.104Z" fill="#F5F5F5"/>
<path d="M224.073 215.377H221.453V229.622H224.073V215.377Z" fill="#F5F5F5"/>
<path d="M224.073 237.651H221.453V251.896H224.073V237.651Z" fill="#F5F5F5"/>
<path d="M224.073 259.933H221.453V274.178H224.073V259.933Z" fill="#F5F5F5"/>
<path d="M214.786 170.822H212.166V185.067H214.786V170.822Z" fill="#F5F5F5"/>
<path d="M214.786 193.104H212.166V207.349H214.786V193.104Z" fill="#F5F5F5"/>
<path d="M214.786 215.377H212.166V229.622H214.786V215.377Z" fill="#F5F5F5"/>
<path d="M214.786 237.651H212.166V251.896H214.786V237.651Z" fill="#F5F5F5"/>
<path d="M214.786 259.933H212.166V274.178H214.786V259.933Z" fill="#F5F5F5"/>
<path opacity="0.5" d="M202.146 165.916H213.476L218.404 282.976H202.146V165.916Z" fill="#E0E0E0"/>
<path d="M175.107 120.687L207.727 126.859V282.976H175.107V120.687Z" fill="#F0F0F0"/>
<path d="M175.106 120.687H149.006V282.976H175.106V120.687Z" fill="#E6E6E6"/>
<path d="M149.008 134.969H207.727V134.14H149.008V134.969Z" fill="#E0E0E0"/>
<path d="M149.008 143.805H207.727V142.976H149.008V143.805Z" fill="#E0E0E0"/>
<path d="M149.008 152.64H207.727V151.811H149.008V152.64Z" fill="#E0E0E0"/>
<path d="M149.008 161.468H207.727V160.639H149.008V161.468Z" fill="#E0E0E0"/>
<path d="M149.008 170.311H207.727V169.482H149.008V170.311Z" fill="#E0E0E0"/>
<path d="M149.008 179.147H207.727V178.318H149.008V179.147Z" fill="#E0E0E0"/>
<path d="M149.008 187.982H207.727V187.154H149.008V187.982Z" fill="#E0E0E0"/>
<path d="M149.008 196.818H207.727V195.99H149.008V196.818Z" fill="#E0E0E0"/>
<path d="M149.008 205.661H207.727V204.832H149.008V205.661Z" fill="#E0E0E0"/>
<path d="M149.008 214.497H207.727V213.668H149.008V214.497Z" fill="#E0E0E0"/>
<path d="M149.008 223.332H207.727V222.503H149.008V223.332Z" fill="#E0E0E0"/>
<path d="M149.008 232.161H207.727V231.332H149.008V232.161Z" fill="#E0E0E0"/>
<path d="M149.008 241.003H207.727V240.175H149.008V241.003Z" fill="#E0E0E0"/>
<path d="M149.008 249.839H207.727V249.011H149.008V249.839Z" fill="#E0E0E0"/>
<path d="M149.008 258.675H207.727V257.846H149.008V258.675Z" fill="#E0E0E0"/>
<path d="M149.008 267.51H207.727V266.681H149.008V267.51Z" fill="#E0E0E0"/>
<path d="M149.008 276.354H207.727V275.525H149.008V276.354Z" fill="#E0E0E0"/>
<path d="M134.731 86.1953H107.448V282.976H134.731V86.1953Z" fill="#F0F0F0"/>
<path d="M134.731 86.1955H107.448L117.489 68.8203H156.561L134.731 86.1955Z" fill="#FAFAFA"/>
<path d="M134.732 86.1955L156.562 68.8203V282.976H134.732V86.1955Z" fill="#EBEBEB"/>
<path d="M156.561 95.3643H107.448V96.4151H156.561V95.3643Z" fill="#E0E0E0"/>
<path d="M156.561 106.501H107.448V107.552H156.561V106.501Z" fill="#E0E0E0"/>
<path d="M156.561 117.638H107.448V118.689H156.561V117.638Z" fill="#E0E0E0"/>
<path d="M156.561 128.782H107.448V129.833H156.561V128.782Z" fill="#E0E0E0"/>
<path d="M156.561 139.919H107.448V140.97H156.561V139.919Z" fill="#E0E0E0"/>
<path d="M156.561 151.057H107.448V152.107H156.561V151.057Z" fill="#E0E0E0"/>
<path d="M156.561 162.194H107.448V163.245H156.561V162.194Z" fill="#E0E0E0"/>
<path d="M156.561 173.331H107.448V174.381H156.561V173.331Z" fill="#E0E0E0"/>
<path d="M156.561 184.467H107.448V185.518H156.561V184.467Z" fill="#E0E0E0"/>
<path d="M156.561 195.612H107.448V196.663H156.561V195.612Z" fill="#E0E0E0"/>
<path d="M156.561 206.749H107.448V207.8H156.561V206.749Z" fill="#E0E0E0"/>
<path d="M156.561 217.886H107.448V218.937H156.561V217.886Z" fill="#E0E0E0"/>
<path d="M156.561 229.023H107.448V230.074H156.561V229.023Z" fill="#E0E0E0"/>
<path d="M156.561 240.16H107.448V241.211H156.561V240.16Z" fill="#E0E0E0"/>
<path d="M156.561 251.297H107.448V252.348H156.561V251.297Z" fill="#E0E0E0"/>
<path d="M156.561 262.441H107.448V263.492H156.561V262.441Z" fill="#E0E0E0"/>
<path d="M156.561 273.579H107.448V274.629H156.561V273.579Z" fill="#E0E0E0"/>
<path d="M102.712 181.419H72.9275V282.977H102.712V181.419Z" fill="#F0F0F0"/>
<path d="M83.5695 186.666H78.7891V202.968H83.5695V186.666Z" fill="#E6E6E6"/>
<path d="M95.298 186.666H90.5176V202.968H95.298V186.666Z" fill="#E6E6E6"/>
<path d="M83.5695 207.777H78.7891V224.08H83.5695V207.777Z" fill="#E6E6E6"/>
<path d="M95.298 207.777H90.5176V224.08H95.298V207.777Z" fill="#E6E6E6"/>
<path d="M83.5695 228.882H78.7891V245.185H83.5695V228.882Z" fill="#E6E6E6"/>
<path d="M95.298 228.882H90.5176V245.185H95.298V228.882Z" fill="#E6E6E6"/>
<path d="M83.5695 249.995H78.7891V266.297H83.5695V249.995Z" fill="#E6E6E6"/>
<path d="M95.298 249.995H90.5176V266.297H95.298V249.995Z" fill="#E6E6E6"/>
<path d="M102.705 181.419H72.9275L79.9131 174.381H109.698L102.705 181.419Z" fill="white"/>
<path d="M102.703 181.419L109.696 174.381L116.682 181.419V282.976H102.703V181.419Z" fill="#E6E6E6"/>
<path d="M185 316.395C264.241 316.395 328.479 312.644 328.479 308.018C328.479 303.392 264.241 299.641 185 299.641C105.759 299.641 41.5215 303.392 41.5215 308.018C41.5215 312.644 105.759 316.395 185 316.395Z" fill="#F5F5F5"/>
<path d="M308.542 84.7896H214.17C210.373 84.7896 207.295 87.8674 207.295 91.6642V301.136C207.295 304.933 210.373 308.011 214.17 308.011H308.542C312.339 308.011 315.417 304.933 315.417 301.136V91.6642C315.417 87.8674 312.339 84.7896 308.542 84.7896Z" fill="#407BFF"/>
<path d="M304.264 84.7896H209.892C206.095 84.7896 203.018 87.8674 203.018 91.6642V301.136C203.018 304.933 206.095 308.011 209.892 308.011H304.264C308.061 308.011 311.139 304.933 311.139 301.136V91.6642C311.139 87.8674 308.061 84.7896 304.264 84.7896Z" fill="#407BFF"/>
<path opacity="0.7" d="M304.264 84.7896H209.892C206.095 84.7896 203.018 87.8674 203.018 91.6642V301.136C203.018 304.933 206.095 308.011 209.892 308.011H304.264C308.061 308.011 311.139 304.933 311.139 301.136V91.6642C311.139 87.8674 308.061 84.7896 304.264 84.7896Z" fill="white"/>
<g opacity="0.9">
<path d="M224.723 84.7896H218.869V308.011H224.723V84.7896Z" fill="white"/>
<path d="M286.652 84.7896H283.062V308.011H286.652V84.7896Z" fill="white"/>
<path d="M203.018 133.275V139.128L311.139 132.431V126.578L203.018 133.275Z" fill="white"/>
<path d="M203.025 271.558V277.412H311.147V271.558H203.025Z" fill="white"/>
<path d="M203.018 162.497V165.686H311.139V162.497H203.018Z" fill="white"/>
<path d="M203.018 237.955V244.659L311.139 208.074V201.369L203.018 237.955Z" fill="white"/>
<path d="M240.914 84.7896H235.061L250.793 308.018H256.646L240.914 84.7896Z" fill="white"/>
</g>
<path d="M292.301 285.114H163.578V244.992H277.042L287.632 253.598C289.095 254.786 290.275 256.286 291.083 257.989C291.891 259.692 292.307 261.555 292.301 263.44V285.114Z" fill="#407BFF"/>
<path opacity="0.5" d="M292.301 285.114H163.578V244.992H277.042L287.632 253.598C289.095 254.786 290.275 256.286 291.083 257.989C291.891 259.692 292.307 261.555 292.301 263.44V285.114Z" fill="black"/>
<path d="M162.84 281.496C162.84 266.851 169.5 254.981 177.64 254.981H161.937C153.745 254.981 147.137 266.821 147.137 281.496C147.137 296.17 153.797 308.017 161.937 308.017H177.669C169.463 308.017 162.84 296.14 162.84 281.496Z" fill="#263238"/>
<path d="M177.667 308.01C185.858 308.01 192.497 296.139 192.497 281.496C192.497 266.852 185.858 254.981 177.667 254.981C169.477 254.981 162.838 266.852 162.838 281.496C162.838 296.139 169.477 308.01 177.667 308.01Z" fill="#263238"/>
<path d="M178.859 302.172C184.667 302.172 189.375 292.915 189.375 281.496C189.375 270.077 184.667 260.82 178.859 260.82C173.052 260.82 168.344 270.077 168.344 281.496C168.344 292.915 173.052 302.172 178.859 302.172Z" fill="white"/>
<path d="M77.361 281.496C77.361 266.851 84.021 254.981 92.161 254.981H76.4582C68.2664 254.981 61.6582 266.821 61.6582 281.496C61.6582 296.17 68.3182 308.017 76.4582 308.017H92.1906C83.9988 308.017 77.361 296.14 77.361 281.496Z" fill="#263238"/>
<path d="M92.1909 308.01C100.381 308.01 107.021 296.139 107.021 281.496C107.021 266.852 100.381 254.981 92.1909 254.981C84.0008 254.981 77.3613 266.852 77.3613 281.496C77.3613 296.139 84.0008 308.01 92.1909 308.01Z" fill="#263238"/>
<path d="M264.463 281.496C264.463 266.851 271.123 254.981 279.263 254.981H263.56C255.375 254.981 248.76 266.821 248.76 281.496C248.76 296.17 255.42 308.017 263.56 308.017H279.292C271.108 308.017 264.463 296.14 264.463 281.496Z" fill="#263238"/>
<path d="M279.292 308.01C287.483 308.01 294.122 296.139 294.122 281.496C294.122 266.852 287.483 254.981 279.292 254.981C271.102 254.981 264.463 266.852 264.463 281.496C264.463 296.139 271.102 308.01 279.292 308.01Z" fill="#263238"/>
<path d="M280.492 302.172C286.299 302.172 291.007 292.915 291.007 281.496C291.007 270.077 286.299 260.82 280.492 260.82C274.684 260.82 269.977 270.077 269.977 281.496C269.977 292.915 274.684 302.172 280.492 302.172Z" fill="white"/>
<path d="M145.315 288.896H126.29L125.224 287.86C124.13 286.763 122.644 286.145 121.095 286.143H73.5425C71.993 286.145 70.5078 286.763 69.4133 287.86L68.7621 288.504H67.0305C65.6851 288.504 64.3529 288.238 63.1105 287.721C61.8682 287.205 60.7401 286.448 59.7911 285.494C58.8422 284.541 58.0911 283.409 57.5809 282.164C57.0708 280.919 56.8117 279.585 56.8185 278.24V262.589H164.725L156.141 281.252C155.35 283.489 153.883 285.426 151.944 286.796C150.005 288.165 147.689 288.899 145.315 288.896Z" fill="#407BFF"/>
<path opacity="0.2" d="M145.315 288.896H126.29L125.224 287.86C124.13 286.763 122.644 286.145 121.095 286.143H73.5425C71.993 286.145 70.5078 286.763 69.4133 287.86L68.7621 288.504H67.0305C65.6851 288.504 64.3529 288.238 63.1105 287.721C61.8682 287.205 60.7401 286.448 59.7911 285.494C58.8422 284.541 58.0911 283.409 57.5809 282.164C57.0708 280.919 56.8117 279.585 56.8185 278.24V262.589H164.725L156.141 281.252C155.35 283.489 153.883 285.426 151.944 286.796C150.005 288.165 147.689 288.899 145.315 288.896Z" fill="black"/>
<path d="M257.64 195.863C257.574 195.864 257.51 195.846 257.455 195.811C257.412 195.787 257.375 195.755 257.345 195.717C257.316 195.679 257.294 195.635 257.282 195.588C257.269 195.541 257.266 195.492 257.273 195.444C257.28 195.396 257.296 195.35 257.321 195.308L262.501 186.428C262.523 186.381 262.554 186.339 262.592 186.304C262.631 186.27 262.677 186.244 262.726 186.228C262.775 186.212 262.827 186.207 262.879 186.213C262.93 186.218 262.98 186.235 263.025 186.261C263.069 186.287 263.108 186.322 263.139 186.364C263.169 186.406 263.19 186.453 263.201 186.504C263.211 186.555 263.211 186.607 263.2 186.658C263.19 186.708 263.168 186.756 263.138 186.798L257.958 195.678C257.926 195.734 257.879 195.78 257.823 195.813C257.768 195.845 257.704 195.863 257.64 195.863Z" fill="#263238"/>
<path d="M284.961 240.041V229.947C284.961 224.642 277.25 199.607 266.646 194.916C256.042 190.224 230.386 188.137 214.224 188.996C198.063 189.854 176.484 223.657 176.484 223.657L178.83 252.725C182.116 252.725 192.579 251.733 194.111 280.489C194.214 282.517 195.093 284.427 196.565 285.824C198.038 287.221 199.992 287.998 202.022 287.993H258.602C260.503 287.992 262.339 287.303 263.772 286.055C265.206 284.807 266.139 283.082 266.402 281.2C267.882 270.951 271.745 252.702 281.061 252.702C287.595 252.702 292.28 258.297 292.28 264.713C292.281 257.664 290.57 250.721 287.292 244.481L284.961 240.041Z" fill="#407BFF"/>
<path d="M155.024 188.996C125.595 188.996 92.2502 223.658 92.2502 223.658H176.514C176.514 223.658 198.07 189.862 214.254 188.996H155.024Z" fill="#407BFF"/>
<path opacity="0.4" d="M156.83 188.996C132.04 188.996 106.036 213.594 98.451 221.341C98.2625 221.533 98.135 221.776 98.0845 222.04C98.034 222.304 98.0628 222.578 98.1673 222.825C98.2718 223.073 98.4472 223.284 98.6715 223.432C98.8958 223.58 99.159 223.659 99.4278 223.658H167.404C170.14 223.665 172.839 223.027 175.283 221.796C177.726 220.564 179.844 218.773 181.464 216.568C188.775 206.608 202.858 189.61 214.254 188.996H156.83Z" fill="white"/>
<path d="M176.513 223.657L145.389 248.218L61.6284 247.951C61.6284 247.951 56.8184 254.944 56.8184 262.589H164.725C166.494 257.904 172.695 252.724 178.859 252.724C178.859 244.007 176.513 223.657 176.513 223.657Z" fill="#407BFF"/>
<path opacity="0.2" d="M156.141 240.981C156.053 240.98 155.967 240.948 155.901 240.889C155.834 240.831 155.791 240.75 155.779 240.663C155.766 240.567 155.791 240.47 155.849 240.392C155.908 240.315 155.994 240.263 156.089 240.248C163.561 239.037 170.552 235.785 176.291 230.85C177.426 229.896 178.165 228.553 178.363 227.084C178.561 225.615 178.205 224.124 177.364 222.903C177.334 222.863 177.311 222.818 177.299 222.769C177.286 222.72 177.284 222.67 177.291 222.62C177.299 222.571 177.316 222.523 177.343 222.48C177.369 222.438 177.404 222.401 177.446 222.372C177.487 222.344 177.534 222.324 177.583 222.314C177.632 222.304 177.683 222.304 177.732 222.314C177.781 222.324 177.828 222.344 177.869 222.373C177.91 222.402 177.945 222.438 177.971 222.481C178.914 223.854 179.313 225.529 179.09 227.18C178.867 228.83 178.039 230.339 176.765 231.413C170.925 236.439 163.807 239.748 156.2 240.974L156.141 240.981Z" fill="black"/>
<path d="M61.6289 247.951C61.6289 247.951 76.3401 230.806 92.2501 223.657H176.514L145.39 248.218L61.6289 247.951Z" fill="#407BFF"/>
<path d="M126.785 247.952H71.5293V249.557H126.785V247.952Z" fill="#263238"/>
<path d="M125.639 244.74L128.599 241.78C129.264 241.116 130.107 240.656 131.026 240.456L153.381 235.587C154.167 235.415 154.983 235.44 155.757 235.661L156.956 235.994C157.754 236.218 158.482 236.642 159.073 237.224C159.663 237.806 160.097 238.528 160.333 239.323C160.569 240.117 160.601 240.959 160.424 241.769C160.248 242.579 159.869 243.332 159.324 243.956L154.514 249.454C153.684 250.4 152.525 250.993 151.272 251.112L129.568 253.08C128.851 253.149 128.128 253.058 127.45 252.815C126.772 252.572 126.156 252.182 125.646 251.674C124.728 250.754 124.212 249.508 124.211 248.209C124.21 246.909 124.723 245.662 125.639 244.74Z" fill="white"/>
<path d="M73.0903 246.309L70.6409 241.728C70.296 241.087 69.7848 240.55 69.1609 240.174C68.5682 239.819 67.8941 239.622 67.2033 239.602C66.5125 239.583 65.8283 239.741 65.2167 240.063L63.3593 241.04C62.447 241.522 61.7535 242.335 61.4205 243.312L60.2883 246.664C60.1 247.216 60.0336 247.802 60.0938 248.382C60.1539 248.962 60.3392 249.522 60.6367 250.024C60.9343 250.525 61.3371 250.956 61.8173 251.287C62.2975 251.618 62.8438 251.841 63.4185 251.94L68.5319 252.821C69.3659 252.965 70.2242 252.843 70.9852 252.473C71.7462 252.102 72.3713 251.502 72.772 250.756L73.1125 250.127C73.4258 249.539 73.5878 248.882 73.5839 248.215C73.58 247.548 73.4104 246.893 73.0903 246.309Z" fill="white"/>
<path opacity="0.4" d="M193.726 224.642H271.633C272.293 224.642 272.945 224.488 273.535 224.192C274.125 223.895 274.638 223.465 275.032 222.935C275.426 222.405 275.691 221.79 275.805 221.139C275.918 220.489 275.879 219.821 275.688 219.188C273.912 213.268 270.508 204.011 265.395 199.29C264.826 198.77 264.128 198.412 263.374 198.254C254.191 196.307 239.428 195.012 228.476 194.258C223.512 193.918 218.533 194.658 213.882 196.425C209.231 198.193 205.018 200.948 201.533 204.499C197.366 208.709 193.602 213.3 190.292 218.211C189.877 218.834 189.639 219.557 189.603 220.304C189.566 221.051 189.733 221.794 190.085 222.454C190.438 223.114 190.962 223.666 191.603 224.051C192.244 224.436 192.978 224.64 193.726 224.642Z" fill="white"/>
<path d="M143.354 271.262C143.354 273.689 140.868 275.665 137.804 275.665C134.74 275.665 132.254 273.689 132.254 271.262C132.254 268.835 134.733 266.866 137.804 266.866C140.875 266.866 143.354 268.835 143.354 271.262Z" fill="#263238"/>
<path d="M98.6355 244.592C100.456 244.592 101.344 246.457 100.619 248.751C99.8935 251.045 97.8363 252.917 96.0085 252.917C94.1807 252.917 93.3001 251.052 94.0253 248.751C94.7505 246.449 96.8151 244.592 98.6355 244.592Z" fill="#263238"/>
<path d="M61.2962 271.262C61.2962 273.689 60.5562 275.665 59.7348 275.665C58.9134 275.665 58.166 273.689 58.166 271.262C58.166 268.835 58.906 266.866 59.7348 266.866C60.5636 266.866 61.2962 268.835 61.2962 271.262Z" fill="#263238"/>
<path d="M191.328 223.939V221.445C191.327 220.729 191.486 220.023 191.793 219.376C192.1 218.73 192.548 218.16 193.103 217.708C193.658 217.257 194.307 216.934 195.002 216.765C195.697 216.596 196.422 216.585 197.122 216.731L206.609 218.707C207.692 218.933 208.664 219.525 209.363 220.383C210.061 221.242 210.442 222.314 210.442 223.421V223.939C210.442 225.215 209.936 226.439 209.034 227.343C208.132 228.246 206.909 228.754 205.632 228.756H196.146C194.868 228.756 193.643 228.249 192.739 227.345C191.836 226.442 191.328 225.216 191.328 223.939Z" fill="#263238"/>
<path d="M241.24 195.293C241.24 195.293 239.975 195.167 237.77 194.975C247.523 214.955 245.036 224.642 245.036 224.642H252.481C252.555 212.476 241.24 195.293 241.24 195.293Z" fill="#263238"/>
<path opacity="0.2" d="M158.983 215.695C158.832 217.265 158.102 218.723 156.935 219.785C155.768 220.846 154.248 221.436 152.67 221.438H114.316C111.519 221.438 110.505 218.315 112.533 215.991C116.191 211.825 120.165 207.946 124.417 204.388C131.64 198.305 140.608 195.145 148.993 195.73L152.16 195.959C153.527 196.066 154.823 196.611 155.855 197.514C156.887 198.417 157.6 199.629 157.887 200.969C159.007 205.792 159.376 210.759 158.983 215.695Z" fill="#407BFF"/>
<path opacity="0.2" d="M245.927 282.732C245.829 282.732 245.734 282.693 245.665 282.623C245.596 282.554 245.557 282.46 245.557 282.362C245.557 274.873 249.375 243.993 250.374 239.368C251.343 234.876 251.343 229.859 250.374 226.595C250.347 226.501 250.358 226.4 250.405 226.314C250.452 226.228 250.531 226.164 250.626 226.137C250.72 226.111 250.82 226.123 250.906 226.17C250.991 226.217 251.055 226.295 251.084 226.388C252.083 229.763 252.083 234.92 251.084 239.523C250.085 244.126 246.282 274.903 246.282 282.362C246.282 282.457 246.245 282.549 246.179 282.618C246.113 282.687 246.022 282.728 245.927 282.732Z" fill="black"/>
<path opacity="0.2" d="M244.942 239.76H235.921C235.75 239.766 235.58 239.732 235.424 239.661C235.268 239.59 235.13 239.485 235.022 239.353C234.913 239.22 234.836 239.065 234.797 238.898C234.758 238.731 234.758 238.558 234.796 238.391L234.981 237.348C235.056 236.972 235.255 236.633 235.547 236.384C235.838 236.136 236.205 235.993 236.587 235.979H245.608C245.779 235.973 245.949 236.007 246.105 236.078C246.261 236.148 246.399 236.254 246.507 236.386C246.616 236.518 246.693 236.674 246.732 236.841C246.771 237.007 246.771 237.181 246.733 237.348L246.548 238.391C246.473 238.767 246.274 239.106 245.982 239.354C245.691 239.603 245.324 239.746 244.942 239.76Z" fill="black"/>
<path d="M272.232 127.635H271.492C271.492 125.751 271.221 123.877 270.685 122.07L271.425 121.863C271.971 123.738 272.243 125.682 272.232 127.635ZM269.043 118.171C267.348 115.129 264.872 112.594 261.871 110.828C258.87 109.061 255.453 108.127 251.971 108.121V107.381C255.585 107.385 259.133 108.354 262.248 110.188C265.362 112.023 267.93 114.656 269.686 117.815L269.043 118.171Z" fill="#407BFF"/>
<path d="M251.971 109.971C247.287 109.973 242.796 111.835 239.485 115.147C236.174 118.46 234.314 122.952 234.314 127.635C234.314 144.655 251.971 156.317 251.971 156.317C251.971 156.317 269.642 144.648 269.642 127.635C269.64 122.95 267.777 118.457 264.464 115.144C261.15 111.832 256.656 109.971 251.971 109.971ZM251.971 135.953C250.341 135.951 248.748 135.466 247.393 134.56C246.038 133.653 244.983 132.365 244.36 130.859C243.737 129.352 243.575 127.695 243.894 126.096C244.213 124.498 244.999 123.029 246.152 121.877C247.305 120.725 248.774 119.941 250.373 119.623C251.972 119.306 253.629 119.469 255.135 120.094C256.641 120.718 257.928 121.774 258.833 123.13C259.739 124.485 260.222 126.079 260.222 127.709C260.222 128.792 260.008 129.865 259.594 130.865C259.179 131.866 258.571 132.775 257.805 133.541C257.038 134.306 256.129 134.913 255.128 135.327C254.127 135.741 253.054 135.954 251.971 135.953Z" fill="#407BFF"/>
<path d="M220.498 306.893L224.968 306.819L226.255 296.459L221.793 296.533L220.498 306.893Z" fill="#B55B52"/>
<path d="M241.832 306.559L246.169 305.235L243.475 295.415L239.139 296.747L241.832 306.559Z" fill="#B55B52"/>
<path d="M246.035 303.933L241.195 306.427C241.117 306.469 241.055 306.537 241.02 306.619C240.985 306.701 240.979 306.792 241.003 306.878L242.039 310.808C242.064 310.903 242.11 310.992 242.175 311.066C242.239 311.141 242.319 311.201 242.41 311.24C242.5 311.279 242.599 311.297 242.697 311.293C242.796 311.288 242.892 311.262 242.979 311.215C244.525 310.386 245.613 309.735 247.574 308.691C248.78 308.07 252.48 306.323 254.145 305.458C255.81 304.592 255.181 302.838 254.426 303.045C251.022 303.955 248.24 304.222 246.804 303.844C246.546 303.776 246.271 303.808 246.035 303.933Z" fill="#263238"/>
<path d="M225.056 306.301L220.18 306.382C220.092 306.384 220.007 306.416 219.94 306.472C219.873 306.529 219.827 306.607 219.81 306.693L218.988 310.674C218.967 310.77 218.967 310.87 218.991 310.966C219.014 311.061 219.058 311.151 219.121 311.226C219.184 311.302 219.263 311.363 219.353 311.403C219.443 311.443 219.541 311.462 219.639 311.459C221.401 311.399 223.939 311.259 226.151 311.222C228.734 311.185 229.489 311.288 232.523 311.222C234.351 311.222 234.832 309.327 234.062 309.172C230.554 308.432 229.186 308.432 226.144 306.612C225.814 306.416 225.44 306.309 225.056 306.301Z" fill="#263238"/>
<path d="M231.841 170.977C232.855 173.012 234.002 175.165 235.149 177.215C236.296 179.265 237.51 181.307 238.805 183.224C239.138 183.698 239.449 184.193 239.789 184.645L240.625 185.784C240.795 186.006 240.892 186.11 240.921 186.162C240.951 186.214 240.966 186.288 241.18 186.302C241.966 186.16 242.696 185.802 243.289 185.266C243.696 184.956 244.111 184.6 244.518 184.223C244.925 183.846 245.332 183.409 245.687 183.061L248.639 184.704C248.393 185.358 248.101 185.993 247.766 186.606C247.436 187.233 247.055 187.832 246.627 188.397C246.171 189.014 245.65 189.579 245.073 190.084C244.386 190.694 243.59 191.169 242.727 191.482C241.645 191.877 240.471 191.942 239.352 191.667C238.304 191.41 237.334 190.903 236.526 190.187C236.347 190.037 236.176 189.876 236.015 189.706L235.778 189.462L235.608 189.27L234.957 188.53C234.52 188.034 234.121 187.523 233.706 187.05C232.125 185.017 230.668 182.892 229.34 180.686C228.689 179.591 228.045 178.466 227.453 177.363C226.861 176.261 226.284 175.143 225.736 173.893L231.841 170.977Z" fill="#B55B52"/>
<path d="M223.834 171.007C222.628 175.106 231.101 186.273 231.101 186.273L239.648 180.775C238.04 177.223 236.055 173.854 233.728 170.726C230.228 166.263 225.152 166.5 223.834 171.007Z" fill="#407BFF"/>
<g opacity="0.2">
<path d="M223.834 171.007C222.628 175.106 231.101 186.273 231.101 186.273L239.648 180.775C238.04 177.223 236.055 173.854 233.728 170.726C230.228 166.263 225.152 166.5 223.834 171.007Z" fill="black"/>
</g>
<path opacity="0.2" d="M229.045 175.817C230.799 176.557 233.389 180.804 234.736 183.957L231.11 186.288C229.081 183.579 227.258 180.722 225.656 177.741C226.803 176.468 228.113 175.424 229.045 175.817Z" fill="black"/>
<path d="M245.177 183.86L248.271 178.858L250.972 183.172C250.322 184.323 249.267 185.191 248.012 185.607L245.177 183.86Z" fill="#B55B52"/>
<path d="M252.584 178.91V180.456C252.585 180.939 252.417 181.407 252.111 181.781L250.986 183.172L248.285 178.858L251.075 177.844C251.245 177.784 251.428 177.765 251.607 177.79C251.786 177.815 251.957 177.882 252.105 177.987C252.253 178.091 252.374 178.229 252.457 178.39C252.54 178.55 252.584 178.729 252.584 178.91Z" fill="#B55B52"/>
<path d="M249.566 185.303L244.697 185.229L247.391 175.143L252.26 175.217L249.566 185.303Z" fill="#407BFF"/>
<path d="M250.061 185.303L245.191 185.229L247.885 175.143L252.754 175.217L250.061 185.303Z" fill="#263238"/>
<path opacity="0.2" d="M226.254 296.466L225.589 301.802L221.119 301.876L221.785 296.533L226.254 296.466Z" fill="black"/>
<path opacity="0.2" d="M239.139 296.747L243.482 295.415L244.866 300.477L240.522 301.809L239.139 296.747Z" fill="black"/>
<path d="M204.981 173.16C208.629 188.863 207.837 204.44 208.237 207.799L232.057 206.023C234.344 180.501 228.927 167.543 228.927 167.543C228.927 167.543 227.395 167.247 225.316 167.033C224.665 166.966 223.954 166.907 223.222 166.87C222.815 166.87 222.408 166.833 221.986 166.826C218.6 166.878 215.22 167.125 211.863 167.566C211.226 167.647 210.582 167.736 209.953 167.839L208.266 168.15H208.2C207.654 168.259 207.137 168.476 206.677 168.789C206.218 169.102 205.826 169.504 205.526 169.971C205.225 170.439 205.022 170.962 204.929 171.51C204.835 172.058 204.853 172.619 204.981 173.16Z" fill="#407BFF"/>
<g opacity="0.2">
<path d="M204.981 173.16C208.629 188.863 207.837 204.44 208.237 207.799L232.057 206.023C234.344 180.501 228.927 167.543 228.927 167.543C228.927 167.543 227.395 167.247 225.316 167.033C224.665 166.966 223.954 166.907 223.222 166.87C222.815 166.87 222.408 166.833 221.986 166.826C218.6 166.878 215.22 167.125 211.863 167.566C211.226 167.647 210.582 167.736 209.953 167.839L208.266 168.15H208.2C207.654 168.259 207.137 168.476 206.677 168.789C206.218 169.102 205.826 169.504 205.526 169.971C205.225 170.439 205.022 170.962 204.929 171.51C204.835 172.058 204.853 172.619 204.981 173.16Z" fill="black"/>
</g>
<path opacity="0.2" d="M209.014 176.475L206.276 179.99C206.279 180.034 206.279 180.079 206.276 180.123C206.66 182.506 206.956 184.837 207.178 187.087C209.805 183.853 209.421 178.014 209.014 176.475Z" fill="black"/>
<path d="M213.01 160.625C213.58 163.022 213.543 165.686 211.826 167.595C213.728 169.223 216.192 171.081 220.07 170.933C223.947 170.785 223.082 168.165 221.949 166.841C218.642 166.308 218.634 164.154 218.605 161.786C218.603 161.547 218.526 161.314 218.383 161.121C218.241 160.928 218.041 160.785 217.813 160.713L214.172 159.544C214.018 159.495 213.854 159.488 213.696 159.523C213.539 159.558 213.393 159.635 213.275 159.745C213.157 159.855 213.07 159.994 213.023 160.149C212.977 160.303 212.972 160.468 213.01 160.625Z" fill="#B55B52"/>
<path d="M223.481 186.236C221.483 186.236 219.641 183.838 219.278 180.775C219.136 179.964 219.161 179.132 219.351 178.33C219.54 177.529 219.891 176.775 220.381 176.113C220.612 175.834 220.901 175.608 221.228 175.452C221.556 175.296 221.913 175.214 222.275 175.21C224.266 175.21 226.116 177.608 226.471 180.671C226.613 181.482 226.59 182.313 226.402 183.114C226.213 183.916 225.864 184.671 225.376 185.333C225.143 185.61 224.853 185.834 224.527 185.99C224.2 186.146 223.843 186.23 223.481 186.236ZM222.283 175.95C222.025 175.954 221.771 176.016 221.539 176.13C221.308 176.244 221.104 176.407 220.943 176.609C220.526 177.193 220.23 177.854 220.073 178.555C219.915 179.255 219.899 179.979 220.026 180.686C220.329 183.298 221.913 185.496 223.489 185.496C223.748 185.493 224.003 185.432 224.236 185.318C224.469 185.204 224.674 185.04 224.836 184.837C225.251 184.252 225.546 183.591 225.703 182.891C225.861 182.191 225.878 181.466 225.753 180.76C225.465 178.148 223.881 175.95 222.312 175.95H222.283Z" fill="#407BFF"/>
<path opacity="0.2" d="M218.611 161.919L214.948 162.393C215.029 162.556 215.133 162.711 215.229 162.867C215.924 163.977 217.449 164.709 219.032 164.976C218.689 163.995 218.546 162.956 218.611 161.919Z" fill="black"/>
<path d="M223.361 152.44C225.396 152.78 229.2 150.471 228.312 147.393C227.172 148.821 223.361 148.34 223.361 148.34V152.44Z" fill="#263238"/>
<path d="M215.414 155.696C215.636 157.754 213.097 161.417 210.078 160.344C211.558 159.293 211.321 155.452 211.321 155.452L215.414 155.696Z" fill="#263238"/>
<path d="M212.431 151.7C211.884 156.096 211.336 158.649 213.119 161.32C215.791 165.294 221.533 164.28 223.383 160.158C225.048 156.458 225.662 149.865 221.726 147.334C220.863 146.775 219.873 146.444 218.847 146.374C217.822 146.304 216.795 146.497 215.865 146.934C214.935 147.371 214.131 148.038 213.53 148.872C212.93 149.706 212.551 150.679 212.431 151.7Z" fill="#B55B52"/>
<path d="M211.824 156.14C212.897 157.272 215.85 152.647 215.31 150.96C216.42 151.448 218.551 150.516 218.418 148.681C221.74 150.457 226.558 151.863 226.632 148.681C226.706 145.499 223.672 143.094 220.712 142.842C221.067 143.797 220.127 144.204 218.196 143.797C216.264 143.39 208.82 139.964 209.641 146.809C206.859 146.971 206.496 150.494 211.824 156.14Z" fill="#263238"/>
<path d="M209.649 154.43C209.803 155.534 210.388 156.532 211.277 157.205C212.461 158.086 213.201 157.154 213.312 155.762C213.415 154.504 213.312 152.536 211.898 152.203C211.591 152.136 211.272 152.147 210.97 152.235C210.668 152.322 210.392 152.484 210.169 152.706C209.945 152.927 209.78 153.201 209.69 153.502C209.599 153.803 209.585 154.122 209.649 154.43Z" fill="#B55B52"/>
<path d="M216.362 207.2L232.02 206.038C232.02 206.038 234.048 238.176 233.893 251.8C233.737 265.978 227.233 300.736 227.233 300.736L219.67 300.854C219.67 300.854 220.269 267.14 220.269 253.22C220.269 234.476 216.34 207.2 216.34 207.2" fill="#263238"/>
<path opacity="0.2" d="M222.414 240.611C222.621 241.536 228.445 267.592 230.324 282.791C231.323 276.472 232.352 269.375 233.048 263.107L222.414 240.611Z" fill="black"/>
<path d="M223.568 206.674C223.568 206.674 235.49 235.875 238.176 248.684C241.136 262.707 245.835 298.175 245.835 298.175L237.747 299.433C237.747 299.433 231.627 272.919 228.201 259.377C224.308 243.941 208.872 219.498 208.221 207.814L223.568 206.674Z" fill="#263238"/>
<path d="M246.85 298.864L236.801 301.217L235.535 297.347L246.509 295.467L246.85 298.864Z" fill="#407BFF"/>
<path d="M228.21 300.906L219.197 301.047L219.152 298.138L229.216 297.828L228.21 300.906Z" fill="#407BFF"/>
<path d="M218.558 153.979C218.492 154.334 218.625 154.653 218.854 154.719C219.084 154.786 219.328 154.512 219.394 154.157C219.461 153.802 219.328 153.483 219.091 153.417C218.854 153.35 218.625 153.624 218.558 153.979Z" fill="#263238"/>
<path d="M222.939 154.911C222.872 155.259 223.006 155.585 223.235 155.651C223.464 155.718 223.709 155.444 223.775 155.089C223.842 154.734 223.709 154.408 223.479 154.349C223.25 154.29 223.006 154.556 222.939 154.911Z" fill="#263238"/>
<path d="M221.496 154.823C221.716 155.984 222.095 157.109 222.621 158.168C222.346 158.295 222.047 158.361 221.744 158.361C221.441 158.361 221.142 158.295 220.867 158.168L221.496 154.823Z" fill="#A02724"/>
<path d="M220.12 159.256C219.724 159.173 219.349 159.011 219.018 158.778C218.687 158.545 218.407 158.247 218.196 157.901C218.183 157.876 218.18 157.846 218.188 157.818C218.197 157.791 218.215 157.767 218.24 157.753C218.265 157.742 218.293 157.741 218.319 157.749C218.345 157.757 218.367 157.774 218.381 157.798C218.622 158.176 218.949 158.492 219.334 158.721C219.72 158.949 220.154 159.084 220.601 159.115C220.625 159.121 220.646 159.135 220.661 159.155C220.676 159.174 220.684 159.198 220.684 159.222C220.684 159.247 220.676 159.271 220.661 159.29C220.646 159.309 220.625 159.323 220.601 159.33C220.439 159.319 220.278 159.294 220.12 159.256Z" fill="#263238"/>
<path d="M218.122 152.396C218.088 152.38 218.055 152.36 218.026 152.336C217.989 152.294 217.969 152.24 217.969 152.185C217.969 152.129 217.989 152.075 218.026 152.033C218.271 151.802 218.567 151.633 218.89 151.539C219.213 151.445 219.553 151.429 219.883 151.493C219.937 151.508 219.982 151.544 220.01 151.592C220.037 151.641 220.045 151.698 220.031 151.752C220.018 151.805 219.983 151.85 219.936 151.878C219.889 151.905 219.833 151.913 219.78 151.9C219.515 151.852 219.243 151.868 218.985 151.947C218.728 152.025 218.493 152.164 218.3 152.351C218.275 152.371 218.247 152.386 218.216 152.393C218.185 152.401 218.153 152.402 218.122 152.396Z" fill="#263238"/>
<path d="M225.299 153.809C225.266 153.798 225.235 153.778 225.21 153.753C225.186 153.727 225.168 153.695 225.159 153.661C225.099 153.403 224.977 153.163 224.805 152.962C224.632 152.761 224.413 152.605 224.167 152.506C224.114 152.489 224.069 152.452 224.042 152.402C224.016 152.352 224.01 152.294 224.027 152.24C224.044 152.186 224.081 152.141 224.131 152.115C224.181 152.089 224.239 152.083 224.293 152.099C224.609 152.224 224.891 152.424 225.112 152.682C225.334 152.94 225.49 153.248 225.566 153.579C225.575 153.606 225.578 153.634 225.575 153.662C225.573 153.691 225.564 153.718 225.55 153.742C225.536 153.767 225.517 153.788 225.494 153.804C225.471 153.821 225.445 153.833 225.418 153.838C225.376 153.844 225.334 153.834 225.299 153.809Z" fill="#263238"/>
<path d="M247.708 303.948C247.354 304.12 246.982 304.252 246.598 304.34C246.583 304.353 246.563 304.359 246.543 304.359C246.523 304.359 246.503 304.353 246.487 304.34C246.475 304.323 246.469 304.302 246.469 304.281C246.469 304.26 246.475 304.239 246.487 304.222C246.584 304.059 247.457 302.608 248.012 302.608C248.074 302.608 248.136 302.626 248.189 302.658C248.243 302.691 248.287 302.738 248.315 302.793C248.373 302.881 248.409 302.981 248.419 303.086C248.429 303.19 248.414 303.296 248.374 303.393C248.218 303.645 247.984 303.839 247.708 303.948ZM246.798 304.066C247.341 303.986 247.832 303.703 248.175 303.274C248.201 303.208 248.209 303.135 248.2 303.064C248.191 302.993 248.165 302.926 248.123 302.867C248.078 302.793 248.041 302.786 248.004 302.786C247.716 302.786 247.161 303.504 246.798 304.066Z" fill="#407BFF"/>
<path d="M246.62 304.333H246.561C246.542 304.33 246.524 304.322 246.509 304.31C246.493 304.299 246.481 304.284 246.472 304.266C246.204 303.686 246.116 303.039 246.221 302.409C246.252 302.333 246.298 302.264 246.357 302.207C246.415 302.15 246.485 302.105 246.561 302.076C246.632 302.04 246.712 302.031 246.789 302.048C246.866 302.066 246.935 302.109 246.983 302.172C247.301 302.571 246.983 303.852 246.657 304.288C246.655 304.298 246.65 304.307 246.643 304.314C246.637 304.322 246.629 304.328 246.62 304.333ZM246.62 302.312C246.54 302.353 246.477 302.422 246.443 302.505C246.354 303.005 246.416 303.52 246.62 303.985C246.865 303.459 247.035 302.542 246.85 302.312C246.85 302.312 246.791 302.238 246.665 302.312H246.62Z" fill="#407BFF"/>
<path d="M225.509 306.915C225.489 306.907 225.473 306.894 225.461 306.877C225.45 306.86 225.443 306.84 225.443 306.819C225.443 306.798 225.45 306.778 225.461 306.761C225.473 306.744 225.489 306.73 225.509 306.723C225.708 306.612 227.492 305.672 228.039 305.983C228.09 306.011 228.132 306.052 228.163 306.101C228.194 306.15 228.213 306.206 228.217 306.264C228.228 306.359 228.217 306.456 228.183 306.546C228.15 306.636 228.095 306.717 228.025 306.782C227.544 307.218 226.263 307.063 225.538 306.93L225.509 306.915ZM227.921 306.138C227.21 306.179 226.519 306.392 225.908 306.76C226.571 306.949 227.279 306.896 227.906 306.612C227.953 306.568 227.989 306.514 228.01 306.453C228.03 306.392 228.035 306.327 228.025 306.264C228.025 306.241 228.02 306.218 228.008 306.198C227.996 306.179 227.979 306.163 227.958 306.153L227.921 306.138Z" fill="#407BFF"/>
<path d="M225.507 306.915C225.493 306.904 225.481 306.889 225.474 306.872C225.466 306.856 225.462 306.837 225.463 306.819C225.502 306.187 225.735 305.583 226.129 305.087C226.291 304.949 226.501 304.88 226.714 304.895C227.01 304.895 227.091 305.073 227.113 305.191C227.202 305.694 226.151 306.671 225.633 306.923C225.614 306.935 225.592 306.942 225.569 306.94C225.546 306.939 225.525 306.93 225.507 306.915ZM226.773 305.117C226.739 305.108 226.703 305.108 226.669 305.117C226.592 305.108 226.513 305.116 226.439 305.14C226.365 305.165 226.297 305.205 226.24 305.258C225.912 305.649 225.713 306.132 225.67 306.641C226.218 306.308 226.928 305.531 226.876 305.235C226.876 305.191 226.862 305.147 226.773 305.117Z" fill="#407BFF"/>
<path d="M212.092 174.551C210.612 177.178 209.132 179.983 207.8 182.743C206.458 185.441 205.308 188.23 204.359 191.09C204.248 191.438 204.166 191.778 204.063 192.119C204.026 192.274 203.959 192.496 203.937 192.6C203.913 192.685 203.893 192.771 203.878 192.859C203.814 193.324 203.826 193.796 203.915 194.257C204.212 195.524 204.699 196.739 205.358 197.861C206.893 200.447 208.683 202.874 210.7 205.106L208.554 207.681C205.692 205.789 203.15 203.453 201.021 200.762C199.835 199.263 198.917 197.571 198.305 195.759C197.953 194.678 197.795 193.543 197.839 192.407C197.839 192.104 197.898 191.786 197.935 191.482C197.972 191.179 198.017 191.023 198.061 190.787C198.15 190.357 198.231 189.906 198.328 189.484C199.157 186.198 200.281 182.993 201.687 179.909C203.036 176.878 204.568 173.932 206.275 171.088L212.092 174.551Z" fill="#B55B52"/>
<path d="M207.445 168.49C203.323 169.623 199.305 181.204 199.305 181.204L209.228 183.956C210.967 181.518 212.354 178.848 213.35 176.024C215.437 170.392 212.433 167.129 207.445 168.49Z" fill="#407BFF"/>
<g opacity="0.2">
<path d="M207.445 168.49C203.323 169.623 199.305 181.204 199.305 181.204L209.228 183.956C210.967 181.518 212.354 178.848 213.35 176.024C215.437 170.392 212.432 167.129 207.445 168.49Z" fill="black"/>
</g>
<path d="M208.798 204.344L213.327 205.535L211.529 209.79C211.529 209.79 207.466 208.932 207.488 206.719L208.798 204.344Z" fill="#B55B52"/>
<path d="M215.066 208.421L213.727 211.788L211.529 209.79L213.327 205.535L215.066 208.421Z" fill="#B55B52"/>
</g>
<defs>
<clipPath id="clip0_1881_77980">
<rect width="370" height="370" fill="white"/>
</clipPath>
</defs>
</svg>
