<svg width="34" height="34" viewBox="0 0 34 34" fill="none" xmlns="http://www.w3.org/2000/svg">
<mask id="mask0_1883_56988" style="mask-type:alpha" maskUnits="userSpaceOnUse" x="6" y="5" width="24" height="24">
<rect x="6" y="5" width="24" height="24" fill="#D9D9D9"/>
</mask>
<g mask="url(#mask0_1883_56988)">
<path d="M17.7402 28.5352C16.1686 28.5352 14.6832 28.2333 13.284 27.6295C11.8848 27.0258 10.6629 26.2016 9.61836 25.157C8.57378 24.1124 7.74961 22.8906 7.14586 21.4914C6.54211 20.0922 6.24023 18.6068 6.24023 17.0352C6.24023 15.4443 6.54211 13.9541 7.14586 12.5645C7.74961 11.1749 8.57378 9.95786 9.61836 8.91328C10.6629 7.8687 11.8848 7.04453 13.284 6.44078C14.6832 5.83703 16.1686 5.53516 17.7402 5.53516C19.3311 5.53516 20.8213 5.83703 22.2109 6.44078C23.6004 7.04453 24.8175 7.8687 25.8621 8.91328C26.9067 9.95786 27.7309 11.1749 28.3346 12.5645C28.9384 13.9541 29.2402 15.4443 29.2402 17.0352C29.2402 18.6068 28.9384 20.0922 28.3346 21.4914C27.7309 22.8906 26.9067 24.1124 25.8621 25.157C24.8175 26.2016 23.6004 27.0258 22.2109 27.6295C20.8213 28.2333 19.3311 28.5352 17.7402 28.5352ZM17.7402 26.1777C18.2386 25.4877 18.6698 24.7689 19.034 24.0214C19.3982 23.2739 19.6952 22.4785 19.9252 21.6352H15.5552C15.7852 22.4785 16.0823 23.2739 16.4465 24.0214C16.8107 24.7689 17.2419 25.4877 17.7402 26.1777ZM14.7502 25.7177C14.4052 25.0852 14.1034 24.4287 13.8446 23.7483C13.5859 23.0679 13.3702 22.3635 13.1977 21.6352H9.80523C10.3611 22.5935 11.0559 23.4272 11.8896 24.1364C12.7234 24.8456 13.6769 25.3727 14.7502 25.7177ZM20.7302 25.7177C21.8036 25.3727 22.7571 24.8456 23.5909 24.1364C24.4246 23.4272 25.1194 22.5935 25.6752 21.6352H22.2827C22.1102 22.3635 21.8946 23.0679 21.6359 23.7483C21.3771 24.4287 21.0752 25.0852 20.7302 25.7177ZM8.82773 19.3352H12.7377C12.6802 18.9518 12.6371 18.5733 12.6084 18.1995C12.5796 17.8258 12.5652 17.4377 12.5652 17.0352C12.5652 16.6327 12.5796 16.2445 12.6084 15.8708C12.6371 15.497 12.6802 15.1185 12.7377 14.7352H8.82773C8.7319 15.1185 8.66003 15.497 8.61211 15.8708C8.56419 16.2445 8.54023 16.6327 8.54023 17.0352C8.54023 17.4377 8.56419 17.8258 8.61211 18.1995C8.66003 18.5733 8.7319 18.9518 8.82773 19.3352ZM15.0377 19.3352H20.4427C20.5002 18.9518 20.5434 18.5733 20.5721 18.1995C20.6009 17.8258 20.6152 17.4377 20.6152 17.0352C20.6152 16.6327 20.6009 16.2445 20.5721 15.8708C20.5434 15.497 20.5002 15.1185 20.4427 14.7352H15.0377C14.9802 15.1185 14.9371 15.497 14.9084 15.8708C14.8796 16.2445 14.8652 16.6327 14.8652 17.0352C14.8652 17.4377 14.8796 17.8258 14.9084 18.1995C14.9371 18.5733 14.9802 18.9518 15.0377 19.3352ZM22.7427 19.3352H26.6527C26.7486 18.9518 26.8204 18.5733 26.8684 18.1995C26.9163 17.8258 26.9402 17.4377 26.9402 17.0352C26.9402 16.6327 26.9163 16.2445 26.8684 15.8708C26.8204 15.497 26.7486 15.1185 26.6527 14.7352H22.7427C22.8002 15.1185 22.8434 15.497 22.8721 15.8708C22.9009 16.2445 22.9152 16.6327 22.9152 17.0352C22.9152 17.4377 22.9009 17.8258 22.8721 18.1995C22.8434 18.5733 22.8002 18.9518 22.7427 19.3352ZM22.2827 12.4352H25.6752C25.1194 11.4768 24.4246 10.6431 23.5909 9.93391C22.7571 9.22474 21.8036 8.69766 20.7302 8.35266C21.0752 8.98516 21.3771 9.64161 21.6359 10.322C21.8946 11.0024 22.1102 11.7068 22.2827 12.4352ZM15.5552 12.4352H19.9252C19.6952 11.5918 19.3982 10.7964 19.034 10.0489C18.6698 9.30141 18.2386 8.58266 17.7402 7.89266C17.2419 8.58266 16.8107 9.30141 16.4465 10.0489C16.0823 10.7964 15.7852 11.5918 15.5552 12.4352ZM9.80523 12.4352H13.1977C13.3702 11.7068 13.5859 11.0024 13.8446 10.322C14.1034 9.64161 14.4052 8.98516 14.7502 8.35266C13.6769 8.69766 12.7234 9.22474 11.8896 9.93391C11.0559 10.6431 10.3611 11.4768 9.80523 12.4352Z" fill="#979797"/>
</g>
</svg>
