<svg width="40" height="41" viewBox="0 0 40 41" fill="none" xmlns="http://www.w3.org/2000/svg">
<path fill-rule="evenodd" clip-rule="evenodd" d="M6.35263 40.4761C2.37937 42.005 -1.39554 37.8452 0.508262 34.0359L15.8295 3.37948C17.5479 -0.0587884 22.4522 -0.0587862 24.1706 3.37949L39.4917 34.0359C41.3955 37.8452 37.6206 42.005 33.6474 40.4761L22.2319 36.0835C20.7953 35.5307 19.2048 35.5307 17.7683 36.0835L6.35263 40.4761Z" fill="white"/>
<path fill-rule="evenodd" clip-rule="evenodd" d="M3.28267 35.3144L18.6039 4.65797C19.2041 3.4571 20.7997 3.45711 21.3999 4.65797L36.7211 35.3144C37.0923 36.0572 36.9232 36.7895 36.4584 37.3017C36.004 37.8024 35.4148 37.9583 34.791 37.7182L23.3755 33.3256C21.2059 32.4908 18.7979 32.4908 16.6284 33.3256L5.21276 37.7183C4.5889 37.9583 3.99973 37.8024 3.54533 37.3017C3.08048 36.7895 2.91145 36.0572 3.28267 35.3144Z" fill="#3478F5"/>
</svg>
