<svg width="70" height="70" viewBox="0 0 70 70" fill="none" xmlns="http://www.w3.org/2000/svg">
<path d="M35 70C30.1582 70 25.6082 69.0813 21.35 67.244C17.0918 65.4062 13.3875 62.9125 10.2374 59.7626C7.08755 56.6125 4.59377 52.9082 2.75605 48.65C0.918683 44.3918 0 39.8418 0 35C0 30.1582 0.918683 25.6082 2.75605 21.35C4.59377 17.0918 7.08755 13.3875 10.2374 10.2374C13.3875 7.08755 17.0918 4.59377 21.35 2.75605C25.6082 0.918684 30.1582 0 35 0C39.8418 0 44.3918 0.918684 48.65 2.75605C52.9082 4.59377 56.6125 7.08755 59.7626 10.2374C62.9125 13.3875 65.4062 17.0918 67.244 21.35C69.0813 25.6082 70 30.1582 70 35C70 39.8418 69.0813 44.3918 67.244 48.65C65.4062 52.9082 62.9125 56.6125 59.7626 59.7626C56.6125 62.9125 52.9082 65.4062 48.65 67.244C44.3918 69.0813 39.8418 70 35 70ZM35 64.75C38.6751 64.75 42.1313 64.152 45.3687 62.9561C48.606 61.7604 51.5374 60.0542 54.1626 57.8374L47.8626 51.6253C46.0542 52.9667 44.0709 54.0311 41.9126 54.8187C39.754 55.6062 37.4498 56 35 56C29.1667 56 24.2084 53.9584 20.1253 49.8753C16.0418 45.7918 14 40.8333 14 35C14 29.1667 16.0418 24.2084 20.1253 20.1253C24.2084 16.0418 29.1667 14 35 14C40.8333 14 45.7916 16.0418 49.8747 20.1253C53.9582 24.2084 56 29.1667 56 35C56 37.4502 55.6062 39.7544 54.8187 41.9126C54.0311 44.0709 52.9667 46.0542 51.6253 47.8626L57.8374 54.0753C59.996 51.45 61.6877 48.5333 62.9126 45.3253C64.1376 42.1168 64.75 38.6751 64.75 35C64.75 26.7168 61.8625 19.6877 56.0874 13.9126C50.3123 8.13755 43.2832 5.25 35 5.25C26.7168 5.25 19.6877 8.13755 13.9126 13.9126C8.13755 19.6877 5.25 26.7168 5.25 35C5.25 43.2835 8.13755 50.3126 13.9126 56.0874C19.6877 61.8625 26.7168 64.75 35 64.75ZM35 50.75C36.6916 50.75 38.3103 50.502 39.856 50.0061C41.4022 49.5104 42.8168 48.796 44.1 47.8626L37.6247 41.4753C37.2167 41.65 36.7938 41.7811 36.356 41.8687C35.9187 41.9562 35.4667 42 35 42C33.0751 42 31.4271 41.3147 30.056 39.944C28.6854 38.5729 28 36.9249 28 35C28 33.0751 28.6854 31.4271 30.056 30.056C31.4271 28.6854 33.0751 28 35 28C36.9249 28 38.5729 28.6854 39.944 30.056C41.3147 31.4271 42 33.0751 42 35C42 35.4667 41.9418 35.9333 41.8253 36.4C41.7084 36.8667 41.5625 37.3333 41.3874 37.8L47.8626 44.1C48.796 42.8169 49.5104 41.4022 50.006 39.8561C50.502 38.3103 50.75 36.6916 50.75 35C50.75 30.6249 49.2187 26.9062 46.156 23.844C43.0938 20.7813 39.3751 19.25 35 19.25C30.6249 19.25 26.9062 20.7813 23.844 23.844C20.7813 26.9062 19.25 30.6249 19.25 35C19.25 39.3751 20.7813 43.0938 23.844 46.1561C26.9062 49.2187 30.6249 50.75 35 50.75Z" fill="#377EF6"/>
</svg>
