<svg width="34" height="34" viewBox="0 0 34 34" fill="none" xmlns="http://www.w3.org/2000/svg">
<path d="M26.2931 18.626C26.3424 18.2667 26.367 17.8953 26.367 17.5C26.367 17.1167 26.3424 16.7333 26.2808 16.374L28.7808 14.4812C29.0025 14.3135 29.064 13.9901 28.9286 13.7505L26.564 9.77344C26.4163 9.5099 26.1084 9.42604 25.8374 9.5099L22.8941 10.6599C22.2783 10.2047 21.6256 9.82135 20.899 9.53385L20.4557 6.49115C20.4064 6.20365 20.1601 6 19.8645 6H15.1355C14.8399 6 14.6059 6.20365 14.5567 6.49115L14.1133 9.53385C13.3867 9.82135 12.7217 10.2167 12.1182 10.6599L9.17488 9.5099C8.90394 9.41406 8.59606 9.5099 8.44828 9.77344L6.09606 13.7505C5.94828 14.0021 5.99754 14.3135 6.24384 14.4812L8.74384 16.374C8.68227 16.7333 8.63301 17.1286 8.63301 17.5C8.63301 17.8714 8.65764 18.2667 8.71921 18.626L6.21921 20.5188C5.99754 20.6865 5.93596 21.0099 6.07143 21.2495L8.43596 25.2266C8.58374 25.4901 8.89163 25.574 9.16256 25.4901L12.1059 24.3401C12.7217 24.7953 13.3744 25.1786 14.101 25.4661L14.5443 28.5089C14.6059 28.7964 14.8399 29 15.1355 29H19.8645C20.1601 29 20.4064 28.7964 20.4434 28.5089L20.8867 25.4661C21.6133 25.1786 22.2783 24.7953 22.8818 24.3401L25.8251 25.4901C26.0961 25.5859 26.4039 25.4901 26.5517 25.2266L28.9163 21.2495C29.064 20.9859 29.0025 20.6865 28.7685 20.5188L26.2931 18.626ZM17.5 21.8125C15.0616 21.8125 13.0665 19.8719 13.0665 17.5C13.0665 15.1281 15.0616 13.1875 17.5 13.1875C19.9384 13.1875 21.9335 15.1281 21.9335 17.5C21.9335 19.8719 19.9384 21.8125 17.5 21.8125Z" fill="#979797"/>
</svg>
