<svg width="34" height="34" viewBox="0 0 34 34" fill="none" xmlns="http://www.w3.org/2000/svg">
<path fill-rule="evenodd" clip-rule="evenodd" d="M5.5 16.9998C5.5 10.3599 10.6487 4.97719 16.9999 4.97719C17.8449 4.97275 18.6874 5.07284 19.5098 5.27537C16.2548 6.24972 14.1244 9.50878 14.4387 13.0333C14.7529 16.5577 17.4228 19.349 20.7941 19.6775C24.1653 20.0061 27.2827 17.7789 28.2146 14.3759C28.4084 15.2357 28.5041 16.1165 28.4999 16.9998C28.4999 23.6398 23.3512 29.0225 16.9999 29.0225C10.6487 29.0225 5.5 23.6398 5.5 16.9998ZM15.2464 18.8321C12.263 15.7161 11.8299 10.8188 14.2162 7.18373C9.72478 8.57833 6.80843 13.1048 7.26009 17.9803C7.71174 22.8558 11.4047 26.713 16.0687 27.1806C20.7326 27.6482 25.0595 24.5951 26.3893 19.8982C22.9145 22.3963 18.2297 21.9481 15.2464 18.8321Z" fill="#979797"/>
<path d="M15.2464 18.8321C12.263 15.7161 11.8299 10.8188 14.2162 7.18373C9.72478 8.57833 6.80843 13.1048 7.26009 17.9803C7.71174 22.8558 11.4047 26.713 16.0687 27.1806C20.7326 27.6482 25.0595 24.5951 26.3893 19.8982C22.9145 22.3963 18.2297 21.9481 15.2464 18.8321Z" fill="#979797"/>
</svg>
