<svg width="370" height="370" viewBox="0 0 370 370" fill="none" xmlns="http://www.w3.org/2000/svg">
<path d="M370 282.976H0V283.161H370V282.976Z" fill="#EBEBEB"/>
<path d="M332.925 294.883H308.416V295.068H332.925V294.883Z" fill="#EBEBEB"/>
<path d="M245.102 296.896H238.672V297.081H245.102V296.896Z" fill="#EBEBEB"/>
<path d="M307.677 288.015H293.477V288.2H307.677V288.015Z" fill="#EBEBEB"/>
<path d="M70.7809 289.259H38.8203V289.444H70.7809V289.259Z" fill="#EBEBEB"/>
<path d="M82.059 289.259H77.3748V289.444H82.059V289.259Z" fill="#EBEBEB"/>
<path d="M166.612 292.381H97.2891V292.566H166.612V292.381Z" fill="#EBEBEB"/>
<path d="M175.38 249.972H32.4934C31.374 249.97 30.3012 249.524 29.5104 248.732C28.7195 247.94 28.2754 246.866 28.2754 245.747V44.8886C28.2851 43.7757 28.7336 42.7115 29.5234 41.9273C30.3131 41.1431 31.3804 40.7021 32.4934 40.7002H175.38C176.501 40.7002 177.575 41.1454 178.368 41.9378C179.16 42.7302 179.605 43.8049 179.605 44.9256V245.747C179.605 246.867 179.16 247.942 178.368 248.735C177.575 249.527 176.501 249.972 175.38 249.972ZM32.4934 40.8482C31.4231 40.8502 30.3973 41.2767 29.6412 42.0342C28.8851 42.7917 28.4604 43.8183 28.4604 44.8886V245.747C28.4604 246.817 28.8851 247.844 29.6412 248.601C30.3973 249.359 31.4231 249.785 32.4934 249.787H175.38C176.451 249.785 177.478 249.359 178.235 248.602C178.992 247.844 179.418 246.818 179.42 245.747V44.8886C179.418 43.8176 178.992 42.7911 178.235 42.0338C177.478 41.2765 176.451 40.8502 175.38 40.8482H32.4934Z" fill="#EBEBEB"/>
<path d="M335.449 249.972H192.555C191.435 249.97 190.362 249.524 189.57 248.732C188.778 247.94 188.332 246.867 188.33 245.747V44.8886C188.342 43.775 188.792 42.7108 189.583 41.9268C190.374 41.1428 191.442 40.7021 192.555 40.7002H335.449C336.561 40.704 337.627 41.1459 338.415 41.9299C339.203 42.7139 339.65 43.7769 339.66 44.8886V245.747C339.66 246.865 339.217 247.937 338.428 248.729C337.639 249.521 336.568 249.968 335.449 249.972ZM192.555 40.8482C191.484 40.8502 190.458 41.2765 189.701 42.0338C188.943 42.7911 188.517 43.8176 188.515 44.8886V245.747C188.517 246.818 188.943 247.844 189.701 248.602C190.458 249.359 191.484 249.785 192.555 249.787H335.449C336.52 249.785 337.547 249.359 338.304 248.602C339.062 247.844 339.488 246.818 339.49 245.747V44.8886C339.488 43.8176 339.062 42.7911 338.304 42.0338C337.547 41.2765 336.52 40.8502 335.449 40.8482H192.555Z" fill="#EBEBEB"/>
<path d="M195.235 203.229C213.013 200.344 225.086 183.592 222.2 165.814C219.314 148.035 202.563 135.963 184.784 138.848C167.006 141.734 154.933 158.486 157.819 176.264C160.705 194.042 177.456 206.115 195.235 203.229Z" fill="#F0F0F0"/>
<path d="M198.32 190.18C204.484 185.244 222.74 185 231.368 192.4C239.997 199.8 251.844 211.884 256.04 213.364C260.236 214.844 274.207 209.42 285.477 208.184C296.747 206.948 301.18 218.544 305.368 224.96C309.557 231.376 314.004 231.62 315.98 240.004C317.956 248.388 321.648 254.56 327.324 261.464C333 268.368 349.524 277.744 351.248 282.976H169.208L167.24 211.64C172.139 206.704 192.119 195.116 198.32 190.18Z" fill="#EBEBEB"/>
<path d="M52.7391 218.544C56.5649 214.681 68.9303 212.136 76.0121 196.84C83.0939 181.544 106.352 149.724 115.232 145.321C124.112 140.918 133.932 121.641 137.484 118.896C141.036 116.15 145.624 123.58 146.852 128.02C150.049 139.312 165.352 171.436 174.454 177.6C183.556 183.764 184.193 197.084 186.731 204.736C189.269 212.387 204.831 216.82 208.368 226.684C211.906 236.548 251.288 282.976 251.288 282.976H16.2793C27.9861 274.473 38.0057 233.426 52.7391 218.544Z" fill="#F5F5F5"/>
<path d="M137.854 129.5C137.854 133.296 136.707 150.879 132.755 155.156C128.804 159.433 132.289 149.895 125.614 155.156C118.94 160.417 115.994 171.266 104.798 175.055C93.602 178.843 94.6084 169.297 100.033 163.866C105.457 158.434 111.873 148.903 116.979 146.106C122.085 143.309 137.854 117.823 137.854 129.5Z" fill="#F0F0F0"/>
<path d="M110.26 208.103C115.581 200.747 91.679 209.257 84.4418 206.623C77.2046 203.988 82.799 200.377 72.2688 209.583C61.7386 218.788 43.4976 227.676 53.3618 230.798C63.226 233.921 100.359 221.756 110.26 208.103Z" fill="#F0F0F0"/>
<path d="M246.509 211.766C242.424 206.882 237.755 197.706 231.709 196.1C225.663 194.494 221.6 193.51 222.829 197.21C224.057 200.91 252.873 219.358 246.509 211.766Z" fill="#F0F0F0"/>
<path d="M312.702 238.036C311.652 234.61 308.425 234.706 305.591 229.274C302.757 223.843 298.561 214.6 291.649 214.23C284.738 213.86 273.801 216.576 283.021 223.48C292.241 230.385 316.358 249.995 312.702 238.036Z" fill="#F0F0F0"/>
<path d="M299.33 80.9929H158.73C140.97 80.9929 190.794 77.2929 218.174 71.1287C245.554 64.9645 247.774 62.9887 256.898 69.6487C266.022 76.3087 293.158 61.5087 306.234 70.3887C319.31 79.2687 322.758 80.9929 299.33 80.9929Z" fill="#FAFAFA"/>
<path d="M104.451 104.791C121.989 104.791 155.459 103.363 142.036 97.4506C128.612 91.538 118.674 103.371 112.813 98.346C106.952 93.3214 97.4653 92.6184 89.5917 97.4506C81.7181 102.283 84.0565 94.7644 74.5623 97.4506C61.2423 101.217 18.5887 104.791 54.8931 104.791H104.451Z" fill="#FAFAFA"/>
<path d="M252.51 168.431C265.904 168.431 291.456 167.336 281.207 162.829C270.958 158.323 263.373 167.336 258.904 163.51C254.434 159.684 247.182 159.137 241.144 162.829C235.105 166.522 236.918 160.779 229.666 162.829C219.521 165.7 186.939 168.431 214.652 168.431H252.51Z" fill="#FAFAFA"/>
<path d="M184.998 316.394C264.239 316.394 328.477 312.644 328.477 308.017C328.477 303.391 264.239 299.641 184.998 299.641C105.757 299.641 41.5195 303.391 41.5195 308.017C41.5195 312.644 105.757 316.394 184.998 316.394Z" fill="#F5F5F5"/>
<path d="M174.682 306.435C183.954 306.435 191.473 291.546 191.473 273.179C191.473 254.812 183.954 239.923 174.682 239.923H153.178V306.435H174.682Z" fill="#263238"/>
<path d="M153.068 306.435C162.341 306.435 169.858 291.545 169.858 273.179C169.858 254.812 162.341 239.923 153.068 239.923C143.795 239.923 136.277 254.812 136.277 273.179C136.277 291.545 143.795 306.435 153.068 306.435Z" fill="#263238"/>
<path d="M297.797 306.435C307.069 306.435 314.58 291.546 314.58 273.179C314.58 254.812 307.099 239.923 297.797 239.923H276.256V306.435H297.797Z" fill="#263238"/>
<path d="M276.173 306.435C285.447 306.435 292.964 291.545 292.964 273.179C292.964 254.812 285.447 239.923 276.173 239.923C266.9 239.923 259.383 254.812 259.383 273.179C259.383 291.545 266.9 306.435 276.173 306.435Z" fill="#263238"/>
<path d="M64.6298 289.688L53.1302 286.854C51.1843 286.377 49.3664 285.481 47.8041 284.226C46.2419 282.972 44.9733 281.391 44.0874 279.594C43.303 278.009 42.2201 276.589 40.898 275.413L38.0712 272.897C36.4568 271.46 35.2041 269.662 34.4147 267.65C33.6252 265.638 33.3213 263.468 33.5276 261.316L35.0816 245.036C35.3421 242.307 36.4127 239.718 38.156 237.601C39.8992 235.485 42.2354 233.938 44.8644 233.159L53.0858 230.732L82.745 228.616L64.6298 289.688Z" fill="#407BFF"/>
<path d="M89.7081 306.435C98.9803 306.435 106.499 291.546 106.499 273.179C106.499 254.812 98.9803 239.923 89.7081 239.923H68.1741V306.435H89.7081Z" fill="#263238"/>
<path d="M68.0936 306.435C77.3668 306.435 84.8842 291.545 84.8842 273.179C84.8842 254.812 77.3668 239.923 68.0936 239.923C58.8204 239.923 51.303 254.812 51.303 273.179C51.303 291.545 58.8204 306.435 68.0936 306.435Z" fill="#263238"/>
<path d="M68.0931 299.464C74.5994 299.464 79.8739 287.696 79.8739 273.179C79.8739 258.662 74.5994 246.894 68.0931 246.894C61.5867 246.894 56.3123 258.662 56.3123 273.179C56.3123 287.696 61.5867 299.464 68.0931 299.464Z" fill="#407BFF"/>
<path d="M238.463 289.688L267.456 224.894C267.456 224.894 224.077 192.6 169.036 192.6C79.829 192.6 82.8926 204.625 53.041 230.732L66.0724 239.923C89.2566 239.923 91.188 276.672 94.8954 287.009C95.1724 287.793 95.6855 288.471 96.3641 288.951C97.0426 289.431 97.8532 289.688 98.6842 289.688H238.463Z" fill="#407BFF"/>
<path d="M212.823 306.435C222.095 306.435 229.606 291.546 229.606 273.179C229.606 254.812 222.095 239.923 212.823 239.923H191.281V306.435H212.823Z" fill="#263238"/>
<path d="M191.199 306.435C200.472 306.435 207.989 291.545 207.989 273.179C207.989 254.812 200.472 239.923 191.199 239.923C181.926 239.923 174.408 254.812 174.408 273.179C174.408 291.545 181.926 306.435 191.199 306.435Z" fill="#263238"/>
<path d="M191.199 299.464C197.705 299.464 202.98 287.696 202.98 273.179C202.98 258.662 197.705 246.894 191.199 246.894C184.692 246.894 179.418 258.662 179.418 273.179C179.418 287.696 184.692 299.464 191.199 299.464Z" fill="#407BFF"/>
<path d="M221.161 284.338C218.49 272.202 205.718 239.938 190.407 239.938L173.816 224.872H267.456C273.938 224.872 302.732 228.853 319.049 239.901C332.228 248.825 333.849 262.375 335.743 282.17C336.135 286.21 332.598 289.681 328.128 289.688C290.61 289.688 245.204 289.829 228.672 289.881C225.024 289.918 221.879 287.587 221.161 284.338Z" fill="#407BFF"/>
<path opacity="0.8" d="M260.687 224.894H199.644C198.232 224.899 196.84 224.559 195.59 223.902C194.34 223.246 193.27 222.293 192.473 221.127C185.68 211.063 173.655 200.866 164.842 196.034C226.558 196.034 260.687 224.894 260.687 224.894Z" fill="white"/>
<path opacity="0.8" d="M163.331 199.06C170.731 204.418 179.152 212.721 183.88 220.972C184.109 221.365 184.231 221.812 184.234 222.267C184.236 222.723 184.119 223.171 183.895 223.567C183.67 223.963 183.346 224.293 182.954 224.525C182.561 224.756 182.116 224.881 181.66 224.886H81.6197C71.0081 224.886 74.5305 198.454 129.964 196.47C135.188 196.019 147.369 196.004 154.103 196.034C157.42 196.052 160.647 197.11 163.331 199.06Z" fill="white"/>
<path d="M231.744 275.28L263.808 277.7C264.308 277.738 264.775 277.963 265.115 278.331C265.456 278.699 265.644 279.182 265.643 279.683V281.903C265.643 282.429 265.434 282.934 265.062 283.306C264.69 283.678 264.186 283.887 263.66 283.887H231.618C231.091 283.887 230.586 283.678 230.213 283.306C229.84 282.934 229.629 282.43 229.627 281.903V277.293C229.624 277.019 229.677 276.747 229.783 276.494C229.89 276.242 230.047 276.014 230.246 275.825C230.444 275.636 230.68 275.49 230.938 275.396C231.196 275.302 231.47 275.263 231.744 275.28Z" fill="#263238"/>
<path d="M333.664 275.724L324.858 277.5C324.408 277.59 324.002 277.832 323.71 278.187C323.419 278.542 323.26 278.987 323.26 279.447V281.852C323.26 282.113 323.311 282.371 323.411 282.612C323.512 282.853 323.658 283.072 323.843 283.257C324.028 283.441 324.248 283.587 324.489 283.686C324.731 283.785 324.989 283.836 325.25 283.835H334.574C334.855 283.836 335.133 283.777 335.39 283.662C335.647 283.548 335.876 283.38 336.063 283.17C336.249 282.96 336.39 282.713 336.474 282.445C336.558 282.177 336.584 281.894 336.55 281.615L336.054 277.441C336.022 277.166 335.933 276.901 335.793 276.662C335.652 276.423 335.463 276.217 335.238 276.055C335.013 275.893 334.757 275.781 334.486 275.724C334.215 275.667 333.935 275.667 333.664 275.724Z" fill="#263238"/>
<path opacity="0.8" d="M258.133 237.97L213.363 235.794C213.363 235.794 212.904 243.727 229.495 245.414C239.616 246.342 249.744 243.709 258.133 237.97Z" fill="white"/>
<path opacity="0.3" d="M35.0744 245.029C35.1995 243.728 35.511 242.452 35.9994 241.24L39.0334 241.151C39.0334 241.151 39.174 252.792 34.7784 252.059C34.6552 252.04 34.5339 252.01 34.4158 251.97L35.0744 245.029Z" fill="black"/>
<path opacity="0.8" d="M314.64 237.259C316.151 238.07 317.621 238.957 319.043 239.916C321.206 241.364 323.182 243.074 324.926 245.007C324.3 245.185 323.665 245.328 323.024 245.436C313.086 247.146 305.863 237.97 305.863 237.97L314.64 237.259Z" fill="white"/>
<path d="M272 250.475H303.679C304.79 250.482 305.872 250.828 306.78 251.467L312.315 255.352C312.943 255.788 313.475 256.348 313.876 256.999C314.277 257.65 314.539 258.376 314.646 259.133L316.059 269.619C316.165 270.298 316.121 270.991 315.931 271.651C315.741 272.311 315.41 272.922 314.959 273.44C314.509 273.959 313.951 274.373 313.325 274.653C312.698 274.934 312.018 275.075 311.331 275.066H277.454C276.441 275.052 275.451 274.762 274.59 274.227C273.73 273.693 273.031 272.934 272.57 272.032L266.243 259.696C265.786 258.855 265.582 257.901 265.652 256.947C265.723 255.993 266.067 255.08 266.642 254.316L268.226 252.281C268.674 251.711 269.248 251.251 269.902 250.938C270.557 250.625 271.274 250.467 272 250.475Z" fill="#263238"/>
<path opacity="0.1" d="M105.004 276.057H166.957C167.163 276.056 167.366 276.098 167.554 276.181C167.742 276.263 167.912 276.383 168.051 276.534C168.19 276.685 168.296 276.864 168.363 277.058C168.429 277.252 168.455 277.458 168.437 277.663L168.119 281.267C168.086 281.636 167.915 281.979 167.641 282.228C167.367 282.478 167.009 282.615 166.639 282.614H104.679C104.473 282.614 104.27 282.572 104.082 282.49C103.893 282.408 103.724 282.288 103.585 282.137C103.446 281.986 103.34 281.807 103.273 281.613C103.207 281.419 103.181 281.212 103.199 281.008L103.517 277.397C103.552 277.028 103.724 276.685 104 276.437C104.275 276.189 104.634 276.054 105.004 276.057Z" fill="black"/>
<path d="M124.754 196.034L128.461 195.316L120.876 228.616H117.324L124.754 196.034Z" fill="#407BFF"/>
<path d="M138.289 232.36H125.598L125.272 233.692C125.173 233.985 125.147 234.297 125.196 234.602C125.245 234.907 125.368 235.196 125.554 235.442C125.74 235.689 125.984 235.886 126.263 236.017C126.543 236.148 126.851 236.209 127.159 236.194H134.833C135.551 236.16 136.24 235.899 136.801 235.45C137.362 235.001 137.766 234.386 137.956 233.692L138.289 232.36Z" fill="#263238"/>
<path d="M94.6371 232.36H81.9535L81.6279 233.692C81.5286 233.985 81.5023 234.297 81.5514 234.602C81.6005 234.907 81.7234 235.196 81.9094 235.442C82.0955 235.689 82.3391 235.886 82.6189 236.017C82.8988 236.148 83.2064 236.209 83.5149 236.194H91.1887C91.9067 236.16 92.5954 235.899 93.1564 235.45C93.7174 235.001 94.1217 234.386 94.3115 233.692L94.6371 232.36Z" fill="#263238"/>
<path opacity="0.1" d="M119.479 271.751C119.369 271.751 119.262 271.707 119.184 271.63C119.105 271.552 119.059 271.447 119.057 271.336L118.125 227.735C118.125 227.623 118.168 227.516 118.245 227.434C118.322 227.353 118.427 227.305 118.539 227.299C118.65 227.299 118.756 227.342 118.835 227.42C118.914 227.497 118.959 227.603 118.961 227.713L119.879 271.321C119.879 271.433 119.836 271.54 119.758 271.62C119.681 271.7 119.576 271.747 119.464 271.751H119.479Z" fill="black"/>
<path d="M144.594 303.533L140.221 303.467L138.963 293.329L143.336 293.395L144.594 303.533Z" fill="#FF8B7B"/>
<path d="M117.976 303.43L113.98 301.202L116.962 291.797L120.958 294.024L117.976 303.43Z" fill="#FF8B7B"/>
<path d="M113.603 300.677L118.235 303.311C118.311 303.352 118.37 303.418 118.402 303.498C118.435 303.577 118.438 303.666 118.413 303.748L117.243 307.559C117.215 307.651 117.165 307.736 117.099 307.807C117.033 307.877 116.951 307.932 116.86 307.966C116.77 308 116.672 308.014 116.576 308.005C116.48 307.995 116.386 307.965 116.304 307.914C114.824 307.048 113.788 306.338 111.908 305.272C110.754 304.621 107.202 302.764 105.611 301.861C104.02 300.958 104.7 299.256 105.433 299.485C108.726 300.507 111.434 300.877 112.833 300.566C113.094 300.505 113.369 300.545 113.603 300.677Z" fill="#263238"/>
<path d="M140.132 302.963L144.905 303.037C144.993 303.037 145.077 303.068 145.145 303.123C145.212 303.178 145.258 303.255 145.275 303.341L146.075 307.241C146.091 307.333 146.087 307.427 146.062 307.517C146.038 307.608 145.993 307.691 145.932 307.762C145.871 307.833 145.795 307.889 145.71 307.927C145.624 307.965 145.532 307.983 145.438 307.981C143.714 307.929 141.228 307.788 139.067 307.751C136.536 307.714 134.346 307.818 131.378 307.751C129.587 307.751 129.158 305.901 129.898 305.746C133.332 305.05 136.122 305.006 139.104 303.237C139.416 303.055 139.771 302.961 140.132 302.963Z" fill="#263238"/>
<path d="M138.067 175.328C135.56 177.379 132.947 179.296 130.237 181.071C128.876 181.951 127.492 182.825 126.019 183.624C124.48 184.496 122.862 185.222 121.187 185.792C120.688 185.952 120.178 186.08 119.663 186.177C119.382 186.229 119.056 186.266 118.745 186.295C118.393 186.325 118.039 186.325 117.687 186.295C116.911 186.232 116.156 186.013 115.467 185.651C114.808 185.3 114.221 184.828 113.735 184.26C112.987 183.362 112.438 182.315 112.122 181.189C111.867 180.279 111.696 179.348 111.612 178.407C111.388 175.04 111.711 171.659 112.566 168.395L115.815 168.846C115.8 171.786 116.088 174.719 116.673 177.6C116.812 178.209 117.008 178.804 117.258 179.376C117.403 179.76 117.634 180.107 117.931 180.39C118.02 180.449 118.057 180.442 118.064 180.39C118.072 180.338 118.064 180.353 118.064 180.338C118.439 180.256 118.806 180.139 119.16 179.99C120.421 179.446 121.636 178.8 122.793 178.059C124.036 177.319 125.287 176.453 126.493 175.58C128.965 173.848 131.458 171.984 133.834 170.148L138.067 175.328Z" fill="#FF8B7B"/>
<path d="M139.4 173.315C137.409 177.807 129.735 182.454 125.48 184.415C124.222 184.993 124.385 186.68 123.638 185.947C123.638 185.947 120.359 179.931 120.359 178.703C120.359 177.474 121.447 178.207 122.335 177.378C125.532 174.418 132.222 167.913 136.395 167.196C141.856 166.234 141.264 169.127 139.4 173.315Z" fill="#407BFF"/>
<path d="M120.818 177.903C120.396 177.282 118.65 178.91 118.095 179.591C117.54 180.271 119.064 182.743 119.523 184.031C119.982 185.318 119.079 186.687 120.485 186.887C121.225 186.991 123.334 186.717 123.741 186.147C124.695 184.926 121.832 179.398 120.818 177.903Z" fill="#263238"/>
<path opacity="0.2" d="M130.859 181.456C134.441 179.199 138.111 176.224 139.406 173.316C139.488 173.116 139.584 172.931 139.658 172.739L139.732 171.999C134.87 172.827 131.57 177.741 130.859 181.456Z" fill="black"/>
<path d="M115.186 170.2L118.005 166.019L113.403 164.14C113.403 164.14 110.798 167.1 112.663 169.682L115.186 170.2Z" fill="#FF8B7B"/>
<path d="M119.191 161.476L114.958 161.335L113.404 164.103L118.007 165.982L119.191 161.476Z" fill="#FF8B7B"/>
<path opacity="0.2" d="M138.963 293.329L139.614 298.553L143.987 298.627L143.336 293.403L138.963 293.329Z" fill="black"/>
<path opacity="0.2" d="M120.958 294.024L116.962 291.797L115.43 296.651L119.419 298.879L120.958 294.024Z" fill="black"/>
<path d="M160.822 168.779C156.109 185.385 157.063 203.004 156.634 206.571C153.215 206.327 140.354 205.365 133.324 204.84C131.104 179.865 136.388 167.181 136.388 167.181C136.388 167.181 137.868 166.892 139.925 166.685C140.561 166.619 141.249 166.559 141.967 166.522C142.367 166.522 142.766 166.485 143.173 166.478C146.49 166.534 149.801 166.781 153.089 167.218C153.711 167.292 154.34 167.388 154.954 167.484C155.568 167.581 156.079 167.684 156.604 167.788C158.98 168.261 160.822 168.779 160.822 168.779Z" fill="#407BFF"/>
<path d="M143.173 166.5C141.212 167.551 140.642 171.399 144.438 171.547C148.234 171.695 152.001 169.023 153.089 167.233L143.173 166.5Z" fill="#263238"/>
<path opacity="0.2" d="M155.842 175.905C155.428 177.511 155.902 184.837 157.581 186.65C157.811 184.304 158.114 181.847 158.521 179.346L155.842 175.905Z" fill="black"/>
<path d="M152.933 155.984C152.075 159.122 151.017 164.916 153.089 167.21C151.224 168.809 149.085 169.926 145.289 169.778C141.493 169.63 142.078 167.78 143.173 166.478C146.799 165.893 146.873 163.244 146.466 160.72L152.933 155.984Z" fill="#FF8B7B"/>
<path opacity="0.2" d="M150.3 157.916L146.467 160.721C146.576 161.309 146.636 161.906 146.644 162.504C148.013 162.408 149.997 161.024 150.241 159.64C150.364 159.074 150.384 158.49 150.3 157.916Z" fill="black"/>
<path d="M143.062 154.778C143.062 154.778 140.383 151.012 141.167 148.067C142.174 144.3 148.242 148.918 143.062 154.778Z" fill="#263238"/>
<path d="M153.674 151.212C153.082 155.511 152.934 158.057 150.618 160.092C147.088 163.185 141.908 160.832 141.198 156.392C140.554 152.448 141.62 146.076 145.978 144.678C146.941 144.362 147.968 144.298 148.962 144.493C149.956 144.687 150.884 145.134 151.656 145.79C152.428 146.445 153.019 147.288 153.373 148.237C153.726 149.187 153.83 150.211 153.674 151.212Z" fill="#FF8B7B"/>
<path d="M143.499 155.755C143.499 156.414 142.892 156.569 142.404 156.865C142.064 157.101 141.779 157.406 141.567 157.761C141.567 157.761 140.938 157.554 141.197 156.436C141.456 155.319 143.499 155.141 143.499 155.755Z" fill="#263238"/>
<path d="M143.801 155.777C143.801 156.909 145.051 156.754 146.021 157.065C146.807 157.31 147.499 157.79 148.004 158.441C148.13 158.157 148.171 157.842 148.123 157.535C148.074 157.228 147.938 156.941 147.73 156.71C146.517 155.119 143.801 155.163 143.801 155.777Z" fill="#263238"/>
<path d="M150.351 147.327C147.658 148.126 140.102 148.962 141.027 145.107C142.315 139.712 145.719 142.524 146.207 143.294C148.375 141.725 157.944 143.094 156.034 146.194C158.114 146.513 159.32 148.777 157.825 149.894C156.33 151.012 154.517 155.57 153.518 155.437C152.31 155.27 151.13 154.939 150.011 154.453L152.068 151.7C152.068 151.7 149.574 149.332 150.351 147.327Z" fill="#263238"/>
<path d="M155.065 146.668C156.545 146.306 157.928 146.143 159.127 147.253C159.038 145.388 156.485 145.129 155.065 146.668Z" fill="#263238"/>
<path d="M155.266 156.14C154.946 156.574 154.543 156.941 154.081 157.219C153.618 157.497 153.106 157.681 152.572 157.76C151.136 157.968 150.611 156.643 151.166 155.392C151.662 154.26 153.009 152.795 154.37 153.172C154.664 153.26 154.932 153.42 155.15 153.637C155.367 153.854 155.527 154.121 155.616 154.415C155.705 154.709 155.719 155.021 155.658 155.322C155.597 155.623 155.462 155.904 155.266 156.14Z" fill="#FF8B7B"/>
<path d="M137.984 297.524L145.384 297.635C145.384 297.635 141.114 268.398 141.78 254.797C141.98 250.66 141.314 244.873 142.409 238.672C143.793 230.85 144.459 227.735 146.242 217.856C147.515 210.811 148.647 206.016 148.647 206.016L133.322 204.876C133.322 204.876 128.312 240.108 128.46 253.45C128.616 267.281 137.984 297.524 137.984 297.524Z" fill="#407BFF"/>
<path opacity="0.6" d="M137.984 297.524L145.384 297.635C145.384 297.635 141.114 268.398 141.78 254.797C141.98 250.66 141.314 244.873 142.409 238.672C143.793 230.85 144.459 227.735 146.242 217.856C147.515 210.811 148.647 206.016 148.647 206.016L133.322 204.876C133.322 204.876 128.312 240.108 128.46 253.45C128.616 267.281 137.984 297.524 137.984 297.524Z" fill="black"/>
<path opacity="0.2" d="M142.41 238.672C141.891 241.916 141.675 245.201 141.767 248.485C140.494 252.081 139.384 255.493 138.607 258.527C137.253 263.832 135.107 271.884 133.02 279.617C130.748 270.559 128.535 260.088 128.469 253.413L142.41 238.672Z" fill="black"/>
<path d="M141.591 205.454C141.591 205.454 130.58 233.278 126.406 245.414C121.833 258.674 114.455 294.468 114.455 294.468L121.418 298.412C121.418 298.412 132.267 268.909 136.759 255.996C141.879 241.284 155.999 218.041 156.635 206.608L141.591 205.454Z" fill="#407BFF"/>
<path opacity="0.6" d="M141.591 205.454C141.591 205.454 130.58 233.278 126.406 245.414C121.833 258.674 114.455 294.468 114.455 294.468L121.418 298.412C121.418 298.412 132.267 268.909 136.759 255.996C141.879 241.284 155.999 218.041 156.635 206.608L141.591 205.454Z" fill="black"/>
<path d="M113.537 294.113L121.736 298.767L123.128 296.318L114.048 290.96L113.537 294.113Z" fill="#407BFF"/>
<path d="M137.054 297.68L145.875 297.82L145.919 294.971L136.062 294.661L137.054 297.68Z" fill="#407BFF"/>
<path d="M147.916 151.929C147.916 152.284 147.679 152.551 147.45 152.536C147.221 152.521 147.058 152.218 147.087 151.87C147.117 151.522 147.317 151.248 147.546 151.263C147.776 151.278 147.946 151.581 147.916 151.929Z" fill="#263238"/>
<path d="M143.24 151.633C143.24 151.989 143.011 152.255 142.782 152.24C142.552 152.225 142.382 151.922 142.412 151.574C142.441 151.226 142.641 150.953 142.87 150.967C143.1 150.982 143.27 151.286 143.24 151.633Z" fill="#263238"/>
<path d="M144.298 151.907C143.797 152.95 143.154 153.919 142.389 154.786C142.616 154.976 142.882 155.114 143.168 155.191C143.455 155.268 143.754 155.281 144.046 155.23L144.298 151.907Z" fill="#FF5652"/>
<path d="M143.913 157.494C144.309 157.478 144.697 157.381 145.054 157.207C145.41 157.034 145.727 156.789 145.985 156.488C145.995 156.478 146.003 156.467 146.008 156.454C146.013 156.441 146.016 156.428 146.016 156.414C146.016 156.4 146.013 156.387 146.008 156.374C146.003 156.361 145.995 156.35 145.985 156.34C145.966 156.322 145.941 156.312 145.915 156.312C145.888 156.312 145.863 156.322 145.844 156.34C145.551 156.667 145.186 156.92 144.777 157.08C144.368 157.239 143.928 157.3 143.491 157.258C143.464 157.257 143.438 157.267 143.417 157.285C143.397 157.302 143.384 157.327 143.38 157.354C143.378 157.368 143.379 157.382 143.383 157.395C143.387 157.409 143.393 157.421 143.402 157.432C143.412 157.442 143.423 157.451 143.436 157.456C143.448 157.462 143.462 157.465 143.476 157.465C143.621 157.485 143.767 157.495 143.913 157.494Z" fill="#263238"/>
<path d="M148.655 150.738C148.687 150.744 148.72 150.744 148.752 150.738C148.775 150.723 148.794 150.703 148.81 150.681C148.825 150.658 148.836 150.633 148.841 150.606C148.847 150.579 148.847 150.551 148.842 150.524C148.837 150.497 148.826 150.472 148.811 150.449C148.64 150.169 148.404 149.934 148.123 149.764C147.842 149.594 147.525 149.494 147.198 149.472C147.17 149.471 147.143 149.476 147.117 149.486C147.091 149.496 147.068 149.511 147.049 149.531C147.029 149.55 147.014 149.573 147.004 149.599C146.994 149.625 146.989 149.652 146.99 149.68C146.99 149.734 147.012 149.787 147.051 149.826C147.09 149.865 147.143 149.887 147.198 149.887C147.455 149.909 147.704 149.991 147.924 150.127C148.144 150.264 148.329 150.45 148.463 150.671C148.487 150.698 148.517 150.718 148.55 150.73C148.584 150.741 148.62 150.744 148.655 150.738Z" fill="#263238"/>
<path d="M141.508 150.072C141.543 150.075 141.577 150.07 141.61 150.057C141.642 150.044 141.67 150.024 141.693 149.998C141.857 149.797 142.067 149.637 142.305 149.533C142.543 149.429 142.803 149.383 143.062 149.399C143.116 149.405 143.17 149.39 143.213 149.357C143.256 149.324 143.284 149.275 143.292 149.221C143.296 149.194 143.295 149.166 143.288 149.139C143.281 149.113 143.269 149.087 143.253 149.065C143.236 149.043 143.215 149.025 143.192 149.011C143.168 148.997 143.141 148.988 143.114 148.984C142.787 148.961 142.46 149.016 142.159 149.145C141.857 149.273 141.591 149.472 141.383 149.724C141.363 149.744 141.347 149.767 141.336 149.792C141.326 149.817 141.32 149.845 141.32 149.872C141.32 149.9 141.326 149.927 141.336 149.953C141.347 149.978 141.363 150.001 141.383 150.02C141.419 150.049 141.462 150.067 141.508 150.072Z" fill="#263238"/>
<path d="M111.967 300.632C112.306 300.816 112.666 300.958 113.04 301.054C113.055 301.065 113.073 301.071 113.091 301.071C113.11 301.071 113.128 301.065 113.143 301.054C113.153 301.036 113.159 301.016 113.159 300.995C113.159 300.974 113.153 300.954 113.143 300.936C113.054 300.773 112.255 299.323 111.708 299.3C111.647 299.299 111.588 299.315 111.536 299.345C111.484 299.375 111.441 299.418 111.412 299.471C111.351 299.552 111.311 299.648 111.297 299.749C111.283 299.85 111.294 299.952 111.33 300.048C111.472 300.307 111.696 300.513 111.967 300.632ZM112.847 300.78C112.107 300.544 111.648 300.24 111.537 299.952C111.513 299.885 111.506 299.814 111.516 299.744C111.526 299.674 111.554 299.608 111.597 299.552C111.607 299.53 111.624 299.511 111.645 299.498C111.666 299.485 111.69 299.478 111.715 299.478C111.996 299.493 112.514 300.211 112.847 300.78Z" fill="#407BFF"/>
<path d="M113.018 301.047H113.07C113.089 301.047 113.108 301.041 113.124 301.03C113.139 301.02 113.152 301.005 113.159 300.987C113.159 300.936 113.714 299.788 113.477 299.182C113.451 299.106 113.409 299.037 113.354 298.978C113.299 298.919 113.233 298.873 113.159 298.841C113.09 298.806 113.012 298.794 112.936 298.808C112.86 298.821 112.79 298.859 112.737 298.915C112.419 299.3 112.737 300.558 112.981 300.995C112.987 301.016 113 301.034 113.018 301.047ZM113.122 299.071C113.199 299.116 113.256 299.187 113.285 299.271C113.354 299.764 113.274 300.266 113.055 300.714C112.833 300.196 112.708 299.293 112.9 299.071C112.9 299.071 112.952 298.997 113.078 299.071H113.122Z" fill="#407BFF"/>
<path d="M139.695 303.556C139.713 303.551 139.73 303.54 139.742 303.526C139.754 303.511 139.761 303.493 139.762 303.474C139.767 303.454 139.765 303.432 139.755 303.413C139.746 303.394 139.73 303.379 139.71 303.371C139.518 303.26 137.771 302.342 137.238 302.631C137.188 302.658 137.146 302.697 137.115 302.745C137.084 302.793 137.065 302.848 137.061 302.904C137.05 302.998 137.061 303.093 137.093 303.182C137.125 303.27 137.177 303.35 137.246 303.415C137.719 303.844 138.977 303.689 139.68 303.563L139.695 303.556ZM137.372 302.816C138.067 302.854 138.743 303.062 139.34 303.422C138.692 303.612 137.998 303.559 137.386 303.274C137.341 303.232 137.307 303.18 137.287 303.122C137.266 303.064 137.26 303.002 137.268 302.941C137.267 302.918 137.273 302.896 137.285 302.876C137.297 302.856 137.314 302.84 137.335 302.83L137.372 302.816Z" fill="#407BFF"/>
<path d="M139.696 303.555C139.71 303.544 139.721 303.529 139.729 303.513C139.737 303.496 139.741 303.478 139.74 303.459C139.704 302.839 139.473 302.246 139.081 301.765C139.004 301.696 138.914 301.644 138.816 301.612C138.718 301.58 138.614 301.569 138.512 301.58C138.23 301.58 138.142 301.742 138.127 301.861C138.038 302.357 139.067 303.341 139.607 303.563C139.636 303.571 139.668 303.569 139.696 303.555ZM138.452 301.794H138.563C138.638 301.786 138.713 301.794 138.785 301.817C138.856 301.84 138.922 301.878 138.978 301.927C139.301 302.312 139.495 302.788 139.533 303.289C139 302.956 138.304 302.201 138.356 301.905C138.359 301.879 138.369 301.854 138.386 301.834C138.404 301.814 138.427 301.8 138.452 301.794Z" fill="#407BFF"/>
<path d="M161.901 171.421C162.863 173.212 163.692 174.98 164.55 176.779C165.409 178.577 166.156 180.412 166.911 182.262C167.666 184.112 168.347 185.962 168.976 187.945L169.427 189.425L169.827 190.905C169.96 191.408 170.063 191.941 170.182 192.452L170.271 192.851L170.352 193.384C170.401 193.708 170.433 194.034 170.448 194.361C170.494 195.48 170.447 196.601 170.308 197.713C170.189 198.764 170.041 199.778 169.864 200.777C169.501 202.775 169.057 204.721 168.561 206.645C167.574 210.477 166.391 214.256 165.017 217.967L161.857 217.094C162.515 213.305 163.152 209.464 163.714 205.683C163.988 203.796 164.24 201.909 164.41 200.044C164.499 199.119 164.565 198.202 164.595 197.306C164.634 196.479 164.612 195.651 164.528 194.827C164.528 194.672 164.491 194.464 164.454 194.361L164.41 194.169L164.321 193.858C164.188 193.436 164.084 193.014 163.936 192.585L163.5 191.297L163.019 190.002C162.36 188.263 161.62 186.532 160.873 184.822C160.125 183.113 159.296 181.359 158.475 179.642C157.654 177.925 156.81 176.179 155.996 174.507L161.901 171.421Z" fill="#FF8B7B"/>
<path d="M160.815 168.787C163.953 169.763 168.104 182.773 169.747 188.308C170.79 189.248 170.265 190.964 170.265 190.964L163.879 193.784C162.399 193.044 161.481 191.497 162.036 190.735C158.691 184.423 156.064 179.702 154.799 175.935C152.927 170.355 155.99 167.24 160.815 168.787Z" fill="#407BFF"/>
<path d="M162.317 192.237C161.673 192.622 163.649 194.649 164.285 195.241C164.922 195.833 167.045 194.287 168.37 193.902C169.695 193.517 170.997 194.509 171.278 193.118C171.434 192.378 171.278 190.261 170.768 189.817C169.561 188.796 163.871 191.319 162.317 192.237Z" fill="#263238"/>
<path d="M162.687 215.229L159.275 218.071L163.523 221.134C163.523 221.134 166.313 218.174 165.062 216.413L162.687 215.229Z" fill="#FF8B7B"/>
<path d="M157.33 222.044L161.533 224.087L163.524 221.134L159.276 218.07L157.33 222.044Z" fill="#FF8B7B"/>
</svg>
