<svg width="26" height="27" viewBox="0 0 26 27" fill="none" xmlns="http://www.w3.org/2000/svg">
<path d="M15.8889 26.0206V22.9749C18.0556 22.3311 19.8009 21.093 21.125 19.2606C22.4491 17.4283 23.1111 15.3482 23.1111 13.0206C23.1111 10.693 22.4491 8.61301 21.125 6.78063C19.8009 4.94825 18.0556 3.71015 15.8889 3.06634V0.0206299C18.8741 0.713963 21.3056 2.26777 23.1833 4.68206C25.0611 7.09634 26 9.87587 26 13.0206C26 16.1654 25.0611 18.9449 23.1833 21.3592C21.3056 23.7735 18.8741 25.3273 15.8889 26.0206ZM0 17.5149L0 8.60063H5.77778L13 1.17206V24.9435L5.77778 17.5149H0ZM15.8889 19.0006V7.04063C17.0204 7.58539 17.9051 8.40253 18.5431 9.49206C19.181 10.5816 19.5 11.7702 19.5 13.0578C19.5 14.3206 19.181 15.4906 18.5431 16.5678C17.9051 17.6449 17.0204 18.4559 15.8889 19.0006ZM10.1111 8.37777L7.00556 11.5721H2.88889V14.5435H7.00556L10.1111 17.7378V8.37777Z" fill="#377EF6"/>
</svg>
